<?xml version="1.0" encoding="UTF-8" standalone="no"?>
<!-- Created with Inkscape (http://www.inkscape.org/) -->

<svg
   xmlns:dc="http://purl.org/dc/elements/1.1/"
   xmlns:cc="http://creativecommons.org/ns#"
   xmlns:rdf="http://www.w3.org/1999/02/22-rdf-syntax-ns#"
   xmlns:svg="http://www.w3.org/2000/svg"
   xmlns="http://www.w3.org/2000/svg"
   xmlns:sodipodi="http://sodipodi.sourceforge.net/DTD/sodipodi-0.dtd"
   xmlns:inkscape="http://www.inkscape.org/namespaces/inkscape"
   width="744.09448819"
   height="1052.3622047"
   id="svg2"
   version="1.1"
   inkscape:version="0.47pre4 r22446"
   sodipodi:docname="Nytt dokument 1">
  <defs
     id="defs4">
    <inkscape:perspective
       sodipodi:type="inkscape:persp3d"
       inkscape:vp_x="0 : 526.18109 : 1"
       inkscape:vp_y="0 : 1000 : 0"
       inkscape:vp_z="744.09448 : 526.18109 : 1"
       inkscape:persp3d-origin="372.04724 : 350.78739 : 1"
       id="perspective10" />
    <clipPath
       id="clipPath3239"
       clipPathUnits="userSpaceOnUse">
      <path
         id="path3241"
         d="m 0,0 0,6021 10378,0 L 10378,0 0,0 z" />
    </clipPath>
    <clipPath
       id="clipPath3229"
       clipPathUnits="userSpaceOnUse">
      <path
         id="path3231"
         d="m 0,0 0,6021 10378,0 L 10378,0 0,0 z m 1070.08,1102.82 -62.94,15.67 62.94,15.67 -74.697,0 0,-31.34 74.697,0 z" />
    </clipPath>
    <clipPath
       id="clipPath3223"
       clipPathUnits="userSpaceOnUse">
      <path
         id="path3225"
         d="m 0,0 0,6021 10378,0 L 10378,0 0,0 z" />
    </clipPath>
    <clipPath
       id="clipPath3213"
       clipPathUnits="userSpaceOnUse">
      <path
         id="path3215"
         d="m 0,0 0,6021 10378,0 L 10378,0 0,0 z" />
    </clipPath>
    <clipPath
       id="clipPath3203"
       clipPathUnits="userSpaceOnUse">
      <path
         id="path3205"
         d="m 0,0 0,6021 10378,0 L 10378,0 0,0 z m 1398.66,1251.7 62.68,-15.68 -62.68,-15.67 74.7,0 0,31.35 -74.7,0 z" />
    </clipPath>
    <clipPath
       id="clipPath3197"
       clipPathUnits="userSpaceOnUse">
      <path
         id="path3199"
         d="m 0,0 0,6021 10378,0 L 10378,0 0,0 z" />
    </clipPath>
    <clipPath
       id="clipPath3161"
       clipPathUnits="userSpaceOnUse">
      <path
         id="path3163"
         d="m 0,0 0,6021 10378,0 L 10378,0 0,0 z" />
    </clipPath>
    <clipPath
       id="clipPath3151"
       clipPathUnits="userSpaceOnUse">
      <path
         id="path3153"
         d="m 0,0 0,6021 10378,0 L 10378,0 0,0 z m 1912.15,274.074 27.16,-17.238 -32.12,2.348 33.43,-10.969 4.96,14.887 -33.43,10.972 z" />
    </clipPath>
    <clipPath
       id="clipPath3145"
       clipPathUnits="userSpaceOnUse">
      <path
         id="path3147"
         d="m 0,0 0,6021 10378,0 L 10378,0 0,0 z" />
    </clipPath>
    <clipPath
       id="clipPath3133"
       clipPathUnits="userSpaceOnUse">
      <path
         id="path3135"
         d="m 0,0 0,6021 10378,0 L 10378,0 0,0 z" />
    </clipPath>
    <clipPath
       id="clipPath3123"
       clipPathUnits="userSpaceOnUse">
      <path
         id="path3125"
         d="m 0,0 0,6021 10378,0 L 10378,0 0,0 z m 1758.05,434.441 24.55,-20.894 -31.6,7.051 31.6,-15.93 7.05,14.102 -31.6,15.671 z" />
    </clipPath>
    <clipPath
       id="clipPath3117"
       clipPathUnits="userSpaceOnUse">
      <path
         id="path3119"
         d="m 0,0 0,6021 10378,0 L 10378,0 0,0 z" />
    </clipPath>
    <clipPath
       id="clipPath3087"
       clipPathUnits="userSpaceOnUse">
      <path
         id="path3089"
         d="m 0,0 0,6021 10378,0 L 10378,0 0,0 z" />
    </clipPath>
    <clipPath
       id="clipPath3077"
       clipPathUnits="userSpaceOnUse">
      <path
         id="path3079"
         d="m 0,0 0,6021 10378,0 L 10378,0 0,0 z m 1672.12,568.168 32.13,2.09 -27.43,-16.977 33.43,10.711 -4.7,14.887 -33.43,-10.711 z" />
    </clipPath>
    <clipPath
       id="clipPath3071"
       clipPathUnits="userSpaceOnUse">
      <path
         id="path3073"
         d="m 0,0 0,6021 10378,0 L 10378,0 0,0 z" />
    </clipPath>
    <clipPath
       id="clipPath3049"
       clipPathUnits="userSpaceOnUse">
      <path
         id="path3051"
         d="m 0,0 0,6021 10378,0 L 10378,0 0,0 z" />
    </clipPath>
    <clipPath
       id="clipPath3039"
       clipPathUnits="userSpaceOnUse">
      <path
         id="path3041"
         d="m 0,0 0,6021 10378,0 L 10378,0 0,0 z m 535.957,568.168 32.125,2.09 -27.426,-16.977 33.434,10.711 -4.703,14.887 -33.43,-10.711 z" />
    </clipPath>
    <clipPath
       id="clipPath3033"
       clipPathUnits="userSpaceOnUse">
      <path
         id="path3035"
         d="m 0,0 0,6021 10378,0 L 10378,0 0,0 z" />
    </clipPath>
    <clipPath
       id="clipPath3021"
       clipPathUnits="userSpaceOnUse">
      <path
         id="path3023"
         d="m 0,0 0,6021 10378,0 L 10378,0 0,0 z" />
    </clipPath>
    <clipPath
       id="clipPath3011"
       clipPathUnits="userSpaceOnUse">
      <path
         id="path3013"
         d="m 0,0 0,6021 10378,0 L 10378,0 0,0 z m 621.887,434.441 24.551,-20.894 -31.602,7.051 31.602,-15.93 7.05,14.102 -31.601,15.671 z" />
    </clipPath>
    <clipPath
       id="clipPath3005"
       clipPathUnits="userSpaceOnUse">
      <path
         id="path3007"
         d="m 0,0 0,6021 10378,0 L 10378,0 0,0 z" />
    </clipPath>
    <clipPath
       id="clipPath2993"
       clipPathUnits="userSpaceOnUse">
      <path
         id="path2995"
         d="m 0,0 0,6021 10378,0 L 10378,0 0,0 z" />
    </clipPath>
    <clipPath
       id="clipPath2983"
       clipPathUnits="userSpaceOnUse">
      <path
         id="path2985"
         d="m 0,0 0,6021 10378,0 L 10378,0 0,0 z m 621.887,277.73 24.551,-20.894 -31.602,7.051 31.602,-15.934 7.05,14.106 -31.601,15.671 z" />
    </clipPath>
    <clipPath
       id="clipPath2977"
       clipPathUnits="userSpaceOnUse">
      <path
         id="path2979"
         d="m 0,0 0,6021 10378,0 L 10378,0 0,0 z" />
    </clipPath>
    <clipPath
       id="clipPath2963"
       clipPathUnits="userSpaceOnUse">
      <path
         id="path2965"
         d="m 0,0 0,6021 10378,0 L 10378,0 0,0 z" />
    </clipPath>
    <clipPath
       id="clipPath2953"
       clipPathUnits="userSpaceOnUse">
      <path
         id="path2955"
         d="m 0,0 0,6021 10378,0 L 10378,0 0,0 z m 445.586,434.441 24.551,-20.894 -31.606,7.051 31.606,-15.93 7.051,14.102 -31.602,15.671 z" />
    </clipPath>
    <clipPath
       id="clipPath2947"
       clipPathUnits="userSpaceOnUse">
      <path
         id="path2949"
         d="m 0,0 0,6021 10378,0 L 10378,0 0,0 z" />
    </clipPath>
    <clipPath
       id="clipPath2927"
       clipPathUnits="userSpaceOnUse">
      <path
         id="path2929"
         d="m 0,0 0,6021 10378,0 L 10378,0 0,0 z" />
    </clipPath>
    <clipPath
       id="clipPath2917"
       clipPathUnits="userSpaceOnUse">
      <path
         id="path2919"
         d="m 0,0 0,6021 10378,0 L 10378,0 0,0 z m 359.656,568.168 32.125,2.09 -27.426,-16.977 33.434,10.711 -4.703,14.887 -33.43,-10.711 z" />
    </clipPath>
    <clipPath
       id="clipPath2911"
       clipPathUnits="userSpaceOnUse">
      <path
         id="path2913"
         d="m 0,0 0,6021 10378,0 L 10378,0 0,0 z" />
    </clipPath>
    <clipPath
       id="clipPath2875"
       clipPathUnits="userSpaceOnUse">
      <path
         id="path2877"
         d="m 0,0 0,6021 10378,0 L 10378,0 0,0 z" />
    </clipPath>
    <clipPath
       id="clipPath2865"
       clipPathUnits="userSpaceOnUse">
      <path
         id="path2867"
         d="m 0,0 2384,0 0,3370 L 0,3370 0,0 z" />
    </clipPath>
    <inkscape:perspective
       id="perspective2845"
       inkscape:persp3d-origin="0.5 : 0.33333333 : 1"
       inkscape:vp_z="1 : 0.5 : 1"
       inkscape:vp_y="0 : 1000 : 0"
       inkscape:vp_x="0 : 0.5 : 1"
       sodipodi:type="inkscape:persp3d" />
  </defs>
  <sodipodi:namedview
     id="base"
     pagecolor="#ffffff"
     bordercolor="#666666"
     borderopacity="1.0"
     inkscape:pageopacity="0.0"
     inkscape:pageshadow="2"
     inkscape:zoom="1.4"
     inkscape:cx="258.84369"
     inkscape:cy="874.90558"
     inkscape:document-units="px"
     inkscape:current-layer="layer1"
     showgrid="false"
     inkscape:window-width="1280"
     inkscape:window-height="950"
     inkscape:window-x="0"
     inkscape:window-y="25"
     inkscape:window-maximized="1" />
  <metadata
     id="metadata7">
    <rdf:RDF>
      <cc:Work
         rdf:about="">
        <dc:format>image/svg+xml</dc:format>
        <dc:type
           rdf:resource="http://purl.org/dc/dcmitype/StillImage" />
        <dc:title></dc:title>
      </cc:Work>
    </rdf:RDF>
  </metadata>
  <g
     inkscape:label="Layer 1"
     inkscape:groupmode="layer"
     id="layer1">
    <g
       transform="matrix(0.63731215,0,0,-0.63731215,3.5411426,195.02083)"
       id="g2859">
      <g
         id="g2861">
        <g
           clip-path="url(#clipPath2865)"
           id="g2863">
          <g
             transform="scale(0.229721,0.229721)"
             id="g2869">
            <g
               id="g2871">
              <g
                 clip-path="url(#clipPath2875)"
                 id="g2873">
                <path
                   id="path2879"
                   style="fill:#000000;fill-opacity:1;fill-rule:evenodd;stroke:none"
                   d="m 940.27,1197.11 c 0,-10.82 -8.77,-19.59 -19.586,-19.59 -10.817,0 -19.586,8.77 -19.586,19.59 0,10.81 8.769,19.58 19.586,19.58 10.816,0 19.586,-8.77 19.586,-19.58" />
                <path
                   id="path2881"
                   style="fill:none;stroke:#000000;stroke-width:1.95889997;stroke-linecap:butt;stroke-linejoin:miter;stroke-miterlimit:10;stroke-opacity:1;stroke-dasharray:none"
                   d="m 940.27,1197.11 c 0,-10.82 -8.77,-19.59 -19.586,-19.59 -10.817,0 -19.586,8.77 -19.586,19.59 0,10.81 8.769,19.58 19.586,19.58 10.816,0 19.586,-8.77 19.586,-19.58 z" />
                <g
                   transform="scale(4.35312,4.35312)"
                   id="g2883">
                  <text
                     id="text2885"
                     transform="matrix(1,0,0,-1,13.4997,255.2)">
                    <tspan
                       id="tspan2887"
                       sodipodi:role="line"
                       y="0"
                       x="0 5.3945999 14.4018 23.409 31.509001 40.516201 45.910801 50.414398 58.5144 67.521599 76.528801 85.536003 94.543198 103.5504"
                       style="font-size:16.20000076px;font-style:oblique;font-variant:normal;writing-mode:lr-tb;fill:#000000;fill-opacity:1;fill-rule:nonzero;stroke:none;font-family:Helvetica;-inkscape-font-specification:Helvetica-Oblique">(push) channel</tspan>
                  </text>
                  <text
                     id="text2889"
                     transform="matrix(1,0,0,-1,40.4997,207.5007)">
                    <tspan
                       id="tspan2891"
                       sodipodi:role="line"
                       y="0"
                       x="0 5.3945999 14.4018"
                       style="font-size:16.20000076px;font-variant:normal;font-weight:normal;writing-mode:lr-tb;fill:#000000;fill-opacity:1;fill-rule:nonzero;stroke:none;font-family:Helvetica;-inkscape-font-specification:Helvetica">(a)</tspan>
                    <tspan
                       id="tspan2893"
                       sodipodi:role="line"
                       y="202.5"
                       x="-40.499901 -35.105301 -26.098101"
                       style="font-size:16.20000076px;font-variant:normal;font-weight:normal;writing-mode:lr-tb;fill:#000000;fill-opacity:1;fill-rule:nonzero;stroke:none;font-family:Helvetica;-inkscape-font-specification:Helvetica">(b)</tspan>
                  </text>
                  <text
                     id="text2895"
                     transform="matrix(1,0,0,-1,58.4996,5.0007)">
                    <tspan
                       id="tspan2897"
                       sodipodi:role="line"
                       y="0"
                       x="0 9.0072002 14.4018 23.409 32.416199 41.423401 49.523399 58.530602 63.034199 72.041397 77.435997 86.443199 90.9468 99.954002 108.054 117.0612"
                       style="font-size:16.20000076px;font-style:oblique;font-variant:normal;writing-mode:lr-tb;fill:#000000;fill-opacity:1;fill-rule:nonzero;stroke:none;font-family:Helvetica;-inkscape-font-specification:Helvetica-Oblique">4-phase protocol</tspan>
                  </text>
                  <text
                     id="text2899"
                     transform="matrix(1,0,0,-1,301.4996,5.0007)">
                    <tspan
                       id="tspan2901"
                       sodipodi:role="line"
                       y="0"
                       x="0 5.3945999 13.4946"
                       style="font-size:16.20000076px;font-variant:normal;font-weight:normal;writing-mode:lr-tb;fill:#000000;fill-opacity:1;fill-rule:nonzero;stroke:none;font-family:Helvetica;-inkscape-font-specification:Helvetica">(c)</tspan>
                  </text>
                  <text
                     id="text2903"
                     transform="matrix(1,0,0,-1,373.4996,5.0007)">
                    <tspan
                       id="tspan2905"
                       sodipodi:role="line"
                       y="0"
                       x="0 9.0072002 14.4018 23.409 32.416199 41.423401 49.523399 58.530602 63.034199 72.041397 77.435997 86.443199 90.9468 99.954002 108.054 117.0612"
                       style="font-size:16.20000076px;font-style:oblique;font-variant:normal;writing-mode:lr-tb;fill:#000000;fill-opacity:1;fill-rule:nonzero;stroke:none;font-family:Helvetica;-inkscape-font-specification:Helvetica-Oblique">2-phase protocol</tspan>
                  </text>
                </g>
              </g>
            </g>
            <g
               id="g2907">
              <g
                 clip-path="url(#clipPath2911)"
                 id="g2909">
                <g
                   clip-path="url(#clipPath2917)"
                   id="g2915">
                  <path
                     id="path2921"
                     style="fill:none;stroke:#000000;stroke-width:1.95889997;stroke-linecap:butt;stroke-linejoin:miter;stroke-miterlimit:10;stroke-opacity:1;stroke-dasharray:15.6712;stroke-dashoffset:0"
                     d="m 313.426,413.547 0.262,0 0.781,0.262 2.09,0.781 3.394,1.047 4.703,1.304 5.223,1.829 5.223,2.089 4.964,2.09 4.438,2.09 3.398,2.352 2.871,2.609 1.829,3.137 1.308,2.871 0.781,3.394 0.262,3.918 0.262,3.918 0,4.442 -0.262,4.441 -0.523,4.438 -0.52,4.703 -0.262,4.703 -0.523,4.699 -0.262,4.441 -0.261,4.438 0,16.719 -0.262,4.437 -0.258,4.442 -0.523,4.703 -0.262,4.699 -0.524,4.703 -0.523,4.438 -0.258,4.441 0,4.441 0.258,3.918 0.262,3.918 0.785,3.395 1.305,2.871 1.828,3.137 2.875,2.609 3.394,2.352 4.442,2.089 4.961,2.09 5.484,2.09 4.965,1.828 4.699,1.305 6.531,2.09" />
                </g>
              </g>
            </g>
            <g
               id="g2923">
              <g
                 clip-path="url(#clipPath2927)"
                 id="g2925">
                <path
                   id="path2931"
                   style="fill:#000000;fill-opacity:1;fill-rule:evenodd;stroke:none"
                   d="m 359.656,568.168 32.125,2.09 -27.426,-16.977 -2.351,7.313 -2.348,7.574" />
                <path
                   id="path2933"
                   style="fill:none;stroke:#000000;stroke-width:1.95889997;stroke-linecap:butt;stroke-linejoin:miter;stroke-miterlimit:10;stroke-opacity:1;stroke-dasharray:none"
                   d="m 359.656,568.168 32.125,2.09 -27.426,-16.977 -2.351,7.313 -2.348,7.574 z" />
                <path
                   id="path2935"
                   style="fill:none;stroke:#000000;stroke-width:1.95889997;stroke-linecap:butt;stroke-linejoin:miter;stroke-miterlimit:10;stroke-opacity:1;stroke-dasharray:15.6712;stroke-dashoffset:0"
                   d="m 333.012,256.836 0.261,0 0.786,0.262 2.089,0.519 3.395,0.785 4.703,1.305 5.223,1.305 5.222,1.832 4.965,2.086 4.438,2.09 3.394,2.613 2.875,3.133 1.828,3.656 1.043,3.398 0.786,3.657 0.523,3.918 0.523,4.437 0,20.113 -0.261,5.223 -0.262,5.484 -0.262,5.227 -0.523,5.484 -0.262,5.223 -0.262,5.484 -0.519,5.223 -0.524,5.488 -0.523,4.961 -0.781,5.223 -1.047,5.746 -1.043,6.269 -1.309,7.051 -1.566,7.317 -1.567,7.832 -1.828,8.359 -1.828,8.359 -1.566,8.098 -1.828,7.313 -1.309,6.789 -1.305,5.484 -1.043,4.18 -0.523,2.613 -0.262,1.566 -0.261,0.786" />
                <path
                   id="path2937"
                   style="fill:none;stroke:#000000;stroke-width:1.95889997;stroke-linecap:butt;stroke-linejoin:miter;stroke-miterlimit:10;stroke-opacity:1;stroke-dasharray:none"
                   d="m 176.563,217.133 117.535,0 39.175,78.359 313.426,0 39.18,-78.359 274.246,0" />
                <path
                   id="path2939"
                   style="fill:none;stroke:#000000;stroke-width:1.95889997;stroke-linecap:butt;stroke-linejoin:miter;stroke-miterlimit:10;stroke-opacity:1;stroke-dasharray:none"
                   d="m 176.563,295.492 117.535,0 39.175,-78.359 313.426,0 39.18,78.359 254.656,0" />
                <path
                   id="path2941"
                   style="fill:none;stroke:#000000;stroke-width:1.95889997;stroke-linecap:butt;stroke-linejoin:miter;stroke-miterlimit:10;stroke-opacity:1;stroke-dasharray:none"
                   d="m 176.301,452.727 137.125,0 0,-78.36 176.301,0 0,78.36 176.3,0 0,-78.36 235.067,0 0,78.36 78.617,-0.524" />
              </g>
            </g>
            <g
               id="g2943">
              <g
                 clip-path="url(#clipPath2947)"
                 id="g2945">
                <g
                   clip-path="url(#clipPath2953)"
                   id="g2951">
                  <path
                     id="path2957"
                     style="fill:none;stroke:#000000;stroke-width:1.95889997;stroke-linecap:butt;stroke-linejoin:miter;stroke-miterlimit:10;stroke-opacity:1;stroke-dasharray:15.6712;stroke-dashoffset:0"
                     d="m 411.371,570.258 19.586,-19.59 0,-39.176 -19.586,-39.179 19.586,-39.176 39.18,-19.59" />
                </g>
              </g>
            </g>
            <g
               id="g2959">
              <g
                 clip-path="url(#clipPath2963)"
                 id="g2961">
                <path
                   id="path2967"
                   style="fill:#000000;fill-opacity:1;fill-rule:evenodd;stroke:none"
                   d="m 445.586,434.441 24.551,-20.894 -31.606,7.051 3.66,7.054 3.395,6.789" />
                <path
                   id="path2969"
                   style="fill:none;stroke:#000000;stroke-width:1.95889997;stroke-linecap:butt;stroke-linejoin:miter;stroke-miterlimit:10;stroke-opacity:1;stroke-dasharray:none"
                   d="m 445.586,434.441 24.551,-20.894 -31.606,7.051 3.66,7.054 3.395,6.789 z" />
                <path
                   id="path2971"
                   style="fill:none;stroke:#000000;stroke-width:1.95889997;stroke-linecap:butt;stroke-linejoin:miter;stroke-miterlimit:10;stroke-opacity:1;stroke-dasharray:none"
                   d="m 176.301,531.082 215.48,0 0,78.356 195.891,0 0,-78.356 195.891,0 0,78.356 195.89,0" />
              </g>
            </g>
            <g
               id="g2973">
              <g
                 clip-path="url(#clipPath2977)"
                 id="g2975">
                <g
                   clip-path="url(#clipPath2983)"
                   id="g2981">
                  <path
                     id="path2987"
                     style="fill:none;stroke:#000000;stroke-width:1.95889997;stroke-linecap:butt;stroke-linejoin:miter;stroke-miterlimit:10;stroke-opacity:1;stroke-dasharray:15.6712;stroke-dashoffset:0"
                     d="m 587.672,472.313 -19.59,-78.356 19.59,-78.355 19.59,-39.18 39.176,-19.586" />
                </g>
              </g>
            </g>
            <g
               id="g2989">
              <g
                 clip-path="url(#clipPath2993)"
                 id="g2991">
                <path
                   id="path2997"
                   style="fill:#000000;fill-opacity:1;fill-rule:evenodd;stroke:none"
                   d="m 621.887,277.73 24.551,-20.894 -31.602,7.051 3.656,7.051 3.395,6.792" />
                <path
                   id="path2999"
                   style="fill:none;stroke:#000000;stroke-width:1.95889997;stroke-linecap:butt;stroke-linejoin:miter;stroke-miterlimit:10;stroke-opacity:1;stroke-dasharray:none"
                   d="m 621.887,277.73 24.551,-20.894 -31.602,7.051 3.656,7.051 3.395,6.792 z" />
              </g>
            </g>
            <g
               id="g3001">
              <g
                 clip-path="url(#clipPath3005)"
                 id="g3003">
                <g
                   clip-path="url(#clipPath3011)"
                   id="g3009">
                  <path
                     id="path3015"
                     style="fill:none;stroke:#000000;stroke-width:1.95889997;stroke-linecap:butt;stroke-linejoin:miter;stroke-miterlimit:10;stroke-opacity:1;stroke-dasharray:15.6712;stroke-dashoffset:0"
                     d="m 587.672,570.258 19.59,-19.59 0,-39.176 -19.59,-39.179 19.59,-39.176 39.176,-19.59" />
                </g>
              </g>
            </g>
            <g
               id="g3017">
              <g
                 clip-path="url(#clipPath3021)"
                 id="g3019">
                <path
                   id="path3025"
                   style="fill:#000000;fill-opacity:1;fill-rule:evenodd;stroke:none"
                   d="m 621.887,434.441 24.551,-20.894 -31.602,7.051 3.656,7.054 3.395,6.789" />
                <path
                   id="path3027"
                   style="fill:none;stroke:#000000;stroke-width:1.95889997;stroke-linecap:butt;stroke-linejoin:miter;stroke-miterlimit:10;stroke-opacity:1;stroke-dasharray:none"
                   d="m 621.887,434.441 24.551,-20.894 -31.602,7.051 3.656,7.054 3.395,6.789 z" />
              </g>
            </g>
            <g
               id="g3029">
              <g
                 clip-path="url(#clipPath3033)"
                 id="g3031">
                <g
                   clip-path="url(#clipPath3039)"
                   id="g3037">
                  <path
                     id="path3043"
                     style="fill:none;stroke:#000000;stroke-width:1.95889997;stroke-linecap:butt;stroke-linejoin:miter;stroke-miterlimit:10;stroke-opacity:1;stroke-dasharray:15.6712;stroke-dashoffset:0"
                     d="m 489.727,413.547 0.261,0 0.782,0.262 2.089,0.781 3.395,1.047 4.703,1.304 5.223,1.829 5.222,2.089 4.965,2.09 4.442,2.09 3.394,2.352 2.871,2.609 1.828,3.137 1.309,2.871 0.781,3.394 0.262,3.918 0.262,3.918 0,4.442 -0.262,4.441 -0.524,4.438 -0.519,4.703 -0.262,4.703 -0.523,4.699 -0.262,4.441 -0.262,4.438 0,16.719 -0.261,4.437 -0.258,4.442 -0.524,4.703 -0.261,4.699 -0.524,4.703 -0.519,4.438 -0.262,4.441 0,4.441 0.262,3.918 0.258,3.918 0.785,3.395 1.304,2.871 1.828,3.137 2.875,2.609 3.395,2.352 4.441,2.089 4.961,2.09 5.485,2.09 4.965,1.828 4.699,1.305 6.531,2.09" />
                </g>
              </g>
            </g>
            <g
               id="g3045">
              <g
                 clip-path="url(#clipPath3049)"
                 id="g3047">
                <path
                   id="path3053"
                   style="fill:#000000;fill-opacity:1;fill-rule:evenodd;stroke:none"
                   d="m 535.957,568.168 32.125,2.09 -27.426,-16.977 -2.351,7.313 -2.348,7.574" />
                <path
                   id="path3055"
                   style="fill:none;stroke:#000000;stroke-width:1.95889997;stroke-linecap:butt;stroke-linejoin:miter;stroke-miterlimit:10;stroke-opacity:1;stroke-dasharray:none"
                   d="m 535.957,568.168 32.125,2.09 -27.426,-16.977 -2.351,7.313 -2.348,7.574 z" />
                <g
                   transform="scale(4.35312,4.35312)"
                   id="g3057">
                  <text
                     id="text3059"
                     transform="matrix(1,0,0,-1,0,49.94)">
                    <tspan
                       id="tspan3061"
                       sodipodi:role="line"
                       y="0"
                       x="0 11.6964 20.7036 25.207199"
                       style="font-size:16.20000076px;font-variant:normal;font-weight:normal;writing-mode:lr-tb;fill:#000000;fill-opacity:1;fill-rule:nonzero;stroke:none;font-family:Helvetica;-inkscape-font-specification:Helvetica">Data</tspan>
                    <tspan
                       id="tspan3063"
                       sodipodi:role="line"
                       y="-72"
                       x="0 11.6964 20.7036"
                       style="font-size:16.20000076px;font-variant:normal;font-weight:normal;writing-mode:lr-tb;fill:#000000;fill-opacity:1;fill-rule:nonzero;stroke:none;font-family:Helvetica;-inkscape-font-specification:Helvetica">Req</tspan>
                    <tspan
                       id="tspan3065"
                       sodipodi:role="line"
                       y="-36"
                       x="0 10.8054 18.905399"
                       style="font-size:16.20000076px;font-variant:normal;font-weight:normal;writing-mode:lr-tb;fill:#000000;fill-opacity:1;fill-rule:nonzero;stroke:none;font-family:Helvetica;-inkscape-font-specification:Helvetica">Ack</tspan>
                  </text>
                </g>
              </g>
            </g>
            <g
               id="g3067">
              <g
                 clip-path="url(#clipPath3071)"
                 id="g3069">
                <g
                   clip-path="url(#clipPath3077)"
                   id="g3075">
                  <path
                     id="path3081"
                     style="fill:none;stroke:#000000;stroke-width:1.95889997;stroke-linecap:butt;stroke-linejoin:miter;stroke-miterlimit:10;stroke-opacity:1;stroke-dasharray:15.6712;stroke-dashoffset:0"
                     d="m 1625.89,413.547 0.26,0 0.78,0.262 2.09,0.781 3.4,1.047 4.7,1.304 5.22,1.829 5.23,2.089 4.96,2.09 4.44,2.09 3.4,2.352 2.87,2.609 1.83,3.137 1.3,2.871 0.79,3.394 0.26,3.918 0.26,3.918 0,4.442 -0.26,4.441 -0.53,4.438 -0.52,4.703 -0.26,4.703 -0.52,4.699 -0.26,4.441 -0.26,4.438 0,16.719 -0.27,4.437 -0.26,4.442 -0.52,4.703 -0.26,4.699 -0.52,4.703 -0.53,4.438 -0.25,4.441 0,4.441 0.25,3.918 0.27,3.918 0.78,3.395 1.31,2.871 1.82,3.137 2.88,2.609 3.39,2.352 4.45,2.089 4.96,2.09 5.48,2.09 4.97,1.828 4.69,1.305 6.54,2.09" />
                </g>
              </g>
            </g>
            <g
               id="g3083">
              <g
                 clip-path="url(#clipPath3087)"
                 id="g3085">
                <path
                   id="path3091"
                   style="fill:#000000;fill-opacity:1;fill-rule:evenodd;stroke:none"
                   d="m 1672.12,568.168 32.13,2.09 -27.43,-16.977 -2.35,7.313 -2.35,7.574" />
                <path
                   id="path3093"
                   style="fill:none;stroke:#000000;stroke-width:1.95889997;stroke-linecap:butt;stroke-linejoin:miter;stroke-miterlimit:10;stroke-opacity:1;stroke-dasharray:none"
                   d="m 1672.12,568.168 32.13,2.09 -27.43,-16.977 -2.35,7.313 -2.35,7.574 z" />
                <path
                   id="path3095"
                   style="fill:none;stroke:#000000;stroke-width:1.95889997;stroke-linecap:butt;stroke-linejoin:miter;stroke-miterlimit:10;stroke-opacity:1;stroke-dasharray:15.6712;stroke-dashoffset:0"
                   d="m 1645.48,256.836 0.26,0 0.78,0.262 2.09,0.519 3.4,0.785 4.7,1.305 5.22,1.305 5.23,1.832 4.96,2.086 4.44,2.09 3.39,2.613 2.88,3.133 1.83,3.656 1.04,3.398 0.78,3.657 0.53,3.918 0.52,4.437 0,20.113 -0.26,5.223 -0.26,5.484 -0.26,5.227 -0.53,5.484 -0.26,5.223 -0.26,5.484 -0.52,5.223 -0.52,5.488 -0.53,4.961 -0.78,5.223 -1.05,5.746 -1.04,6.269 -1.31,7.051 -1.56,7.317 -1.57,7.832 -1.83,8.359 -1.83,8.359 -1.56,8.098 -1.83,7.313 -1.31,6.789 -1.3,5.484 -1.05,4.18 -0.52,2.613 -0.26,1.566 -0.26,0.786" />
                <path
                   id="path3097"
                   style="fill:none;stroke:#000000;stroke-width:1.95889997;stroke-linecap:butt;stroke-linejoin:miter;stroke-miterlimit:10;stroke-opacity:1;stroke-dasharray:none"
                   d="m 1509.14,530.297 195.89,0 0,78.355 411.37,0 0,-78.355 176.3,0" />
                <path
                   id="path3099"
                   style="fill:none;stroke:#000000;stroke-width:7.83560991;stroke-linecap:butt;stroke-linejoin:miter;stroke-miterlimit:10;stroke-opacity:1;stroke-dasharray:none"
                   d="m 1704.77,608.914 0,-78.355" />
                <path
                   id="path3101"
                   style="fill:none;stroke:#000000;stroke-width:7.83560991;stroke-linecap:butt;stroke-linejoin:miter;stroke-miterlimit:10;stroke-opacity:1;stroke-dasharray:none"
                   d="m 2116.14,608.914 0,-78.355" />
                <path
                   id="path3103"
                   style="fill:none;stroke:#000000;stroke-width:7.83560991;stroke-linecap:butt;stroke-linejoin:miter;stroke-miterlimit:10;stroke-opacity:1;stroke-dasharray:none"
                   d="m 2194.49,452.203 0,-78.355" />
                <path
                   id="path3105"
                   style="fill:none;stroke:#000000;stroke-width:1.95889997;stroke-linecap:butt;stroke-linejoin:miter;stroke-miterlimit:10;stroke-opacity:1;stroke-dasharray:none"
                   d="m 1488.77,296.012 117.53,0 39.18,-78.356 313.42,0 39.18,78.356 254.66,0" />
                <path
                   id="path3107"
                   style="fill:none;stroke:#000000;stroke-width:1.95889997;stroke-linecap:butt;stroke-linejoin:miter;stroke-miterlimit:10;stroke-opacity:1;stroke-dasharray:none"
                   d="m 1488.77,217.656 117.53,0 39.18,78.356 313.42,0 39.18,-78.356 274.25,0" />
                <path
                   id="path3109"
                   style="fill:none;stroke:#000000;stroke-width:7.83560991;stroke-linecap:butt;stroke-linejoin:miter;stroke-miterlimit:10;stroke-opacity:1;stroke-dasharray:none"
                   d="m 1802.19,452.727 0,-78.36" />
                <path
                   id="path3111"
                   style="fill:none;stroke:#000000;stroke-width:1.95889997;stroke-linecap:butt;stroke-linejoin:miter;stroke-miterlimit:10;stroke-opacity:1;stroke-dasharray:none"
                   d="m 1488.77,374.367 78.35,0 0,78.36 235.07,0 0,-78.36 392.56,-0.781 0,78.355 97.95,0" />
              </g>
            </g>
            <g
               id="g3113">
              <g
                 clip-path="url(#clipPath3117)"
                 id="g3115">
                <g
                   clip-path="url(#clipPath3123)"
                   id="g3121">
                  <path
                     id="path3127"
                     style="fill:none;stroke:#000000;stroke-width:1.95889997;stroke-linecap:butt;stroke-linejoin:miter;stroke-miterlimit:10;stroke-opacity:1;stroke-dasharray:15.6712;stroke-dashoffset:0"
                     d="m 1723.84,570.258 19.58,-19.59 0,-39.176 -19.58,-39.179 19.58,-39.176 39.18,-19.59" />
                </g>
              </g>
            </g>
            <g
               id="g3129">
              <g
                 clip-path="url(#clipPath3133)"
                 id="g3131">
                <path
                   id="path3137"
                   style="fill:#000000;fill-opacity:1;fill-rule:evenodd;stroke:none"
                   d="m 1758.05,434.441 24.55,-20.894 -31.6,7.051 3.65,7.054 3.4,6.789" />
                <path
                   id="path3139"
                   style="fill:none;stroke:#000000;stroke-width:1.95889997;stroke-linecap:butt;stroke-linejoin:miter;stroke-miterlimit:10;stroke-opacity:1;stroke-dasharray:none"
                   d="m 1758.05,434.441 24.55,-20.894 -31.6,7.051 3.65,7.054 3.4,6.789 z" />
              </g>
            </g>
            <g
               id="g3141">
              <g
                 clip-path="url(#clipPath3145)"
                 id="g3143">
                <g
                   clip-path="url(#clipPath3151)"
                   id="g3149">
                  <path
                     id="path3155"
                     style="fill:none;stroke:#000000;stroke-width:1.95889997;stroke-linecap:butt;stroke-linejoin:miter;stroke-miterlimit:10;stroke-opacity:1;stroke-dasharray:15.6712;stroke-dashoffset:0"
                     d="m 1821.78,413.547 39.18,-39.18 0,-58.765 19.59,-39.18 58.76,-19.586" />
                </g>
              </g>
            </g>
            <g
               id="g3157">
              <g
                 clip-path="url(#clipPath3161)"
                 id="g3159">
                <path
                   id="path3165"
                   style="fill:#000000;fill-opacity:1;fill-rule:evenodd;stroke:none"
                   d="m 1912.15,274.074 27.16,-17.238 -32.12,2.348 2.35,7.574 2.61,7.316" />
                <path
                   id="path3167"
                   style="fill:none;stroke:#000000;stroke-width:1.95889997;stroke-linecap:butt;stroke-linejoin:miter;stroke-miterlimit:10;stroke-opacity:1;stroke-dasharray:none"
                   d="m 1912.15,274.074 27.16,-17.238 -32.12,2.348 2.35,7.574 2.61,7.316 z" />
                <g
                   transform="scale(4.35312,4.35312)"
                   id="g3169">
                  <text
                     id="text3171"
                     transform="matrix(1,0,0,-1,301.5,122)">
                    <tspan
                       id="tspan3173"
                       sodipodi:role="line"
                       y="0"
                       x="0 11.6964 20.7036"
                       style="font-size:16.20000076px;font-variant:normal;font-weight:normal;writing-mode:lr-tb;fill:#000000;fill-opacity:1;fill-rule:nonzero;stroke:none;font-family:Helvetica;-inkscape-font-specification:Helvetica">Req</tspan>
                    <tspan
                       id="tspan3175"
                       sodipodi:role="line"
                       y="36.000599"
                       x="0 10.8054 18.905399"
                       style="font-size:16.20000076px;font-variant:normal;font-weight:normal;writing-mode:lr-tb;fill:#000000;fill-opacity:1;fill-rule:nonzero;stroke:none;font-family:Helvetica;-inkscape-font-specification:Helvetica">Ack</tspan>
                    <tspan
                       id="tspan3177"
                       sodipodi:role="line"
                       y="72.000603"
                       x="0 11.6964 20.7036 25.207199"
                       style="font-size:16.20000076px;font-variant:normal;font-weight:normal;writing-mode:lr-tb;fill:#000000;fill-opacity:1;fill-rule:nonzero;stroke:none;font-family:Helvetica;-inkscape-font-specification:Helvetica">Data</tspan>
                  </text>
                </g>
                <path
                   id="path3179"
                   style="fill:none;stroke:#000000;stroke-width:1.95889997;stroke-linecap:butt;stroke-linejoin:miter;stroke-miterlimit:10;stroke-opacity:1;stroke-dasharray:none"
                   d="m 1195.45,1020.29 -39.18,-78.36" />
                <g
                   transform="scale(4.35312,4.35312)"
                   id="g3181">
                  <text
                     id="text3183"
                     transform="matrix(1,0,0,-1,270.12,207.38)">
                    <tspan
                       id="tspan3185"
                       y="0"
                       x="0"
                       style="font-size:14.39999962px;font-variant:normal;font-weight:normal;writing-mode:lr-tb;fill:#000000;fill-opacity:1;fill-rule:nonzero;stroke:none;font-family:Helvetica;-inkscape-font-specification:Helvetica">n</tspan>
                  </text>
                </g>
                <path
                   id="path3187"
                   style="fill:none;stroke:#000000;stroke-width:3.91779995;stroke-linecap:butt;stroke-linejoin:miter;stroke-miterlimit:10;stroke-opacity:1;stroke-dasharray:none"
                   d="m 842.59,1314.38 156.711,0 0,-430.958 -156.711,0" />
                <path
                   id="path3189"
                   style="fill:none;stroke:#000000;stroke-width:3.91779995;stroke-linecap:butt;stroke-linejoin:miter;stroke-miterlimit:10;stroke-opacity:1;stroke-dasharray:none"
                   d="m 1626.15,1314.38 -156.71,0 0,-430.958 156.71,0" />
                <path
                   id="path3191"
                   style="fill:none;stroke:#000000;stroke-width:1.95889997;stroke-linecap:butt;stroke-linejoin:miter;stroke-miterlimit:10;stroke-opacity:1;stroke-dasharray:none"
                   d="m 999.301,1000.96 430.959,0 0,19.59 39.18,-39.183 -39.18,-39.179 0,19.589 -430.959,0" />
              </g>
            </g>
            <g
               id="g3193">
              <g
                 clip-path="url(#clipPath3197)"
                 id="g3195">
                <g
                   clip-path="url(#clipPath3203)"
                   id="g3201">
                  <path
                     id="path3207"
                     style="fill:none;stroke:#000000;stroke-width:1.95889997;stroke-linecap:butt;stroke-linejoin:miter;stroke-miterlimit:10;stroke-opacity:1;stroke-dasharray:none"
                     d="m 999.301,1236.02 470.139,0" />
                </g>
              </g>
            </g>
            <g
               id="g3209">
              <g
                 clip-path="url(#clipPath3213)"
                 id="g3211">
                <path
                   id="path3217"
                   style="fill:none;stroke:#000000;stroke-width:3.91779995;stroke-linecap:butt;stroke-linejoin:miter;stroke-miterlimit:10;stroke-opacity:1;stroke-dasharray:none"
                   d="m 1398.66,1251.7 62.68,-15.68 -62.68,-15.67" />
              </g>
            </g>
            <g
               id="g3219">
              <g
                 clip-path="url(#clipPath3223)"
                 id="g3221">
                <g
                   clip-path="url(#clipPath3229)"
                   id="g3227">
                  <path
                     id="path3233"
                     style="fill:none;stroke:#000000;stroke-width:1.95889997;stroke-linecap:butt;stroke-linejoin:miter;stroke-miterlimit:10;stroke-opacity:1;stroke-dasharray:none"
                     d="m 1469.44,1118.49 -470.139,0" />
                </g>
              </g>
            </g>
            <g
               id="g3235">
              <g
                 clip-path="url(#clipPath3239)"
                 id="g3237">
                <path
                   id="path3243"
                   style="fill:none;stroke:#000000;stroke-width:3.91779995;stroke-linecap:butt;stroke-linejoin:miter;stroke-miterlimit:10;stroke-opacity:1;stroke-dasharray:none"
                   d="m 1070.08,1102.82 -62.94,15.67 62.94,15.67" />
                <g
                   transform="scale(4.35312,4.35312)"
                   id="g3245">
                  <text
                     id="text3247"
                     transform="matrix(1,0,0,-1,13.4997,275.001)">
                    <tspan
                       id="tspan3249"
                       sodipodi:role="line"
                       y="0"
                       x="0 10.8054 19.812599 28.819799 37.827 41.423401 50.430599 59.437801 63.941399 72.948601 81.955803 86.459396"
                       style="font-size:16.20000076px;font-style:oblique;font-variant:normal;writing-mode:lr-tb;fill:#000000;fill-opacity:1;fill-rule:nonzero;stroke:none;font-family:Helvetica;-inkscape-font-specification:Helvetica-Oblique">Bundled data</tspan>
                  </text>
                  <text
                     id="text3251"
                     transform="matrix(1,0,0,-1,266.4557,234.441)">
                    <tspan
                       id="tspan3253"
                       sodipodi:role="line"
                       y="0"
                       x="0 11.6964 20.7036 25.207199"
                       style="font-size:16.20000076px;font-variant:normal;font-weight:normal;writing-mode:lr-tb;fill:#000000;fill-opacity:1;fill-rule:nonzero;stroke:none;font-family:Helvetica;-inkscape-font-specification:Helvetica">Data</tspan>
                    <tspan
                       id="tspan3255"
                       sodipodi:role="line"
                       y="-26.9993"
                       x="3.60374 14.40914 22.50914"
                       style="font-size:16.20000076px;font-variant:normal;font-weight:normal;writing-mode:lr-tb;fill:#000000;fill-opacity:1;fill-rule:nonzero;stroke:none;font-family:Helvetica;-inkscape-font-specification:Helvetica">Ack</tspan>
                    <tspan
                       id="tspan3257"
                       sodipodi:role="line"
                       y="-53.999298"
                       x="2.25144 13.94784 22.95504"
                       style="font-size:16.20000076px;font-variant:normal;font-weight:normal;writing-mode:lr-tb;fill:#000000;fill-opacity:1;fill-rule:nonzero;stroke:none;font-family:Helvetica;-inkscape-font-specification:Helvetica">Req</tspan>
                  </text>
                </g>
              </g>
            </g>
          </g>
        </g>
      </g>
    </g>
  </g>
</svg>
