<?xml version="1.0" encoding="UTF-8" standalone="no"?>
<!-- Created with Inkscape (http://www.inkscape.org/) -->

<svg
   xmlns:dc="http://purl.org/dc/elements/1.1/"
   xmlns:cc="http://creativecommons.org/ns#"
   xmlns:rdf="http://www.w3.org/1999/02/22-rdf-syntax-ns#"
   xmlns:svg="http://www.w3.org/2000/svg"
   xmlns="http://www.w3.org/2000/svg"
   xmlns:sodipodi="http://sodipodi.sourceforge.net/DTD/sodipodi-0.dtd"
   xmlns:inkscape="http://www.inkscape.org/namespaces/inkscape"
   id="svg2837"
   version="1.1"
   inkscape:version="0.47pre4 r22446"
   width="743.75"
   height="1052.5"
   xml:space="preserve"
   sodipodi:docname="sparsø.pdf"><metadata
     id="metadata2843"><rdf:RDF><cc:Work
         rdf:about=""><dc:format>image/svg+xml</dc:format><dc:type
           rdf:resource="http://purl.org/dc/dcmitype/StillImage" /><dc:title></dc:title></cc:Work></rdf:RDF></metadata><defs
     id="defs2841"><inkscape:perspective
       sodipodi:type="inkscape:persp3d"
       inkscape:vp_x="0 : 0.5 : 1"
       inkscape:vp_y="0 : 1000 : 0"
       inkscape:vp_z="1 : 0.5 : 1"
       inkscape:persp3d-origin="0.5 : 0.33333333 : 1"
       id="perspective2845" /><clipPath
       clipPathUnits="userSpaceOnUse"
       id="clipPath3049"><path
         d="m 0,0 2384,0 0,3370 L 0,3370 0,0 z"
         id="path3051" /></clipPath><clipPath
       clipPathUnits="userSpaceOnUse"
       id="clipPath3059"><path
         d="m 0,0 0,6495 10378,0 L 10378,0 0,0 z"
         id="path3061" /></clipPath><clipPath
       clipPathUnits="userSpaceOnUse"
       id="clipPath3079"><path
         d="m 0,0 0,6495 10378,0 L 10378,0 0,0 z"
         id="path3081" /></clipPath><clipPath
       clipPathUnits="userSpaceOnUse"
       id="clipPath3085"><path
         d="m 0,0 0,6495 10378,0 L 10378,0 0,0 z m 2425.47,261.707 25.33,-20.109 -31.86,5.746 32.13,-14.625 6.52,14.363 -32.12,14.625 z"
         id="path3087" /></clipPath><clipPath
       clipPathUnits="userSpaceOnUse"
       id="clipPath3095"><path
         d="m 0,0 0,6495 10378,0 L 10378,0 0,0 z"
         id="path3097" /></clipPath><clipPath
       clipPathUnits="userSpaceOnUse"
       id="clipPath3105"><path
         d="m 0,0 0,6495 10378,0 L 10378,0 0,0 z"
         id="path3107" /></clipPath><clipPath
       clipPathUnits="userSpaceOnUse"
       id="clipPath3111"><path
         d="m 0,0 0,6495 10378,0 L 10378,0 0,0 z m 1895,247.344 -31.87,-5.746 25.34,20.109 -32.13,-14.625 6.53,-14.363 32.13,14.625 z"
         id="path3113" /></clipPath><clipPath
       clipPathUnits="userSpaceOnUse"
       id="clipPath3121"><path
         d="m 0,0 0,6495 10378,0 L 10378,0 0,0 z"
         id="path3123" /></clipPath><clipPath
       clipPathUnits="userSpaceOnUse"
       id="clipPath3131"><path
         d="m 0,0 0,6495 10378,0 L 10378,0 0,0 z"
         id="path3133" /></clipPath><clipPath
       clipPathUnits="userSpaceOnUse"
       id="clipPath3137"><path
         d="m 0,0 0,6495 10378,0 L 10378,0 0,0 z m 2066.34,118.316 31.86,5.747 -25.33,-20.11 32.12,14.625 -6.53,14.367 -32.12,-14.629 z"
         id="path3139" /></clipPath><clipPath
       clipPathUnits="userSpaceOnUse"
       id="clipPath3147"><path
         d="m 0,0 0,6495 10378,0 L 10378,0 0,0 z"
         id="path3149" /></clipPath><clipPath
       clipPathUnits="userSpaceOnUse"
       id="clipPath3157"><path
         d="m 0,0 0,6495 10378,0 L 10378,0 0,0 z"
         id="path3159" /></clipPath><clipPath
       clipPathUnits="userSpaceOnUse"
       id="clipPath3163"><path
         d="m 0,0 0,6495 10378,0 L 10378,0 0,0 z m 2241.07,103.953 -25.34,20.11 31.87,-5.747 -32.12,14.629 -6.53,-14.367 32.12,-14.625 z"
         id="path3165" /></clipPath><clipPath
       clipPathUnits="userSpaceOnUse"
       id="clipPath3173"><path
         d="m 0,0 0,6495 10378,0 L 10378,0 0,0 z"
         id="path3175" /></clipPath><clipPath
       clipPathUnits="userSpaceOnUse"
       id="clipPath3259"><path
         d="m 0,0 0,6495 10378,0 L 10378,0 0,0 z"
         id="path3261" /></clipPath><clipPath
       clipPathUnits="userSpaceOnUse"
       id="clipPath3265"><path
         d="m 0,0 0,6495 10378,0 L 10378,0 0,0 z m 700.066,566.516 -31.339,7.832 31.339,7.836 -35.257,0 0,-15.668 35.257,0 z"
         id="path3267" /></clipPath><clipPath
       clipPathUnits="userSpaceOnUse"
       id="clipPath3275"><path
         d="m 0,0 0,6495 10378,0 L 10378,0 0,0 z"
         id="path3277" /></clipPath><clipPath
       clipPathUnits="userSpaceOnUse"
       id="clipPath3303"><path
         d="m 0,0 0,6495 10378,0 L 10378,0 0,0 z"
         id="path3305" /></clipPath><clipPath
       clipPathUnits="userSpaceOnUse"
       id="clipPath3309"><path
         d="m 0,0 0,6495 10378,0 L 10378,0 0,0 z m 813.16,92.7227 31.344,-7.836 -31.344,-7.8359 35.262,0 0,15.6719 -35.262,0 z"
         id="path3311" /></clipPath><clipPath
       clipPathUnits="userSpaceOnUse"
       id="clipPath3319"><path
         d="m 0,0 0,6495 10378,0 L 10378,0 0,0 z"
         id="path3321" /></clipPath><clipPath
       clipPathUnits="userSpaceOnUse"
       id="clipPath3331"><path
         d="m 0,0 0,6495 10378,0 L 10378,0 0,0 z"
         id="path3333" /></clipPath><clipPath
       clipPathUnits="userSpaceOnUse"
       id="clipPath3337"><path
         d="m 0,0 0,6495 10378,0 L 10378,0 0,0 z m 1067.82,92.7227 31.34,-7.836 -31.34,-7.8359 35.26,0 0,15.6719 -35.26,0 z"
         id="path3339" /></clipPath><clipPath
       clipPathUnits="userSpaceOnUse"
       id="clipPath3347"><path
         d="m 0,0 0,6495 10378,0 L 10378,0 0,0 z"
         id="path3349" /></clipPath><clipPath
       clipPathUnits="userSpaceOnUse"
       id="clipPath3361"><path
         d="m 0,0 0,6495 10378,0 L 10378,0 0,0 z"
         id="path3363" /></clipPath><clipPath
       clipPathUnits="userSpaceOnUse"
       id="clipPath3367"><path
         d="m 0,0 0,6495 10378,0 L 10378,0 0,0 z m 910.848,258.574 32.125,2.09 -27.426,-16.976 33.433,10.707 -4.703,14.886 -33.429,-10.707 z"
         id="path3369" /></clipPath><clipPath
       clipPathUnits="userSpaceOnUse"
       id="clipPath3377"><path
         d="m 0,0 0,6495 10378,0 L 10378,0 0,0 z"
         id="path3379" /></clipPath><clipPath
       clipPathUnits="userSpaceOnUse"
       id="clipPath3389"><path
         d="m 0,0 0,6495 10378,0 L 10378,0 0,0 z"
         id="path3391" /></clipPath><clipPath
       clipPathUnits="userSpaceOnUse"
       id="clipPath3395"><path
         d="m 0,0 0,6495 10378,0 L 10378,0 0,0 z m 656.188,258.574 32.128,2.09 -27.425,-16.976 33.429,10.707 -4.699,14.886 -33.433,-10.707 z"
         id="path3397" /></clipPath><clipPath
       clipPathUnits="userSpaceOnUse"
       id="clipPath3405"><path
         d="m 0,0 0,6495 10378,0 L 10378,0 0,0 z"
         id="path3407" /></clipPath></defs><sodipodi:namedview
     pagecolor="#ffffff"
     bordercolor="#666666"
     borderopacity="1"
     objecttolerance="10"
     gridtolerance="10"
     guidetolerance="10"
     inkscape:pageopacity="0"
     inkscape:pageshadow="2"
     inkscape:window-width="1280"
     inkscape:window-height="950"
     id="namedview2839"
     showgrid="false"
     inkscape:zoom="0.89691211"
     inkscape:cx="454.11339"
     inkscape:cy="751.77768"
     inkscape:window-x="0"
     inkscape:window-y="25"
     inkscape:window-maximized="1"
     inkscape:current-layer="g2847" /><g
     id="g2847"
     inkscape:groupmode="layer"
     inkscape:label="sparsø"
     transform="matrix(1.25,0,0,-1.25,0,1052.5)"><g
       transform="matrix(0.50016901,0,0,0.50016901,3.8333131,730.01914)"
       id="g3043"><g
         id="g3045"><g
           clip-path="url(#clipPath3049)"
           id="g3047"><g
             transform="scale(0.229721,0.229721)"
             id="g3053"><g
               id="g3055"><g
                 clip-path="url(#clipPath3059)"
                 id="g3057"><path
                   id="path3063"
                   style="fill:none;stroke:#000000;stroke-width:1.95889997;stroke-linecap:butt;stroke-linejoin:miter;stroke-miterlimit:10;stroke-opacity:1;stroke-dasharray:none"
                   d="m 2587.93,182.828 c 0,-43.273 -35.09,-78.355 -78.36,-78.355 -43.27,0 -78.36,35.082 -78.36,78.355 0,43.274 35.09,78.356 78.36,78.356 43.27,0 78.36,-35.082 78.36,-78.356 z" /><g
                   transform="scale(4.35312,4.35312)"
                   id="g3065"><text
                     id="text3067"
                     transform="matrix(1,0,0,-1,565.107,37.5001)"><tspan
                       id="tspan3069"
                       sodipodi:role="line"
                       y="0"
                       x="0 6.3899999 16.398001"
                       style="font-size:18px;font-variant:normal;font-weight:normal;writing-mode:lr-tb;fill:#000000;fill-opacity:1;fill-rule:nonzero;stroke:none;font-family:Helvetica;-inkscape-font-specification:Helvetica">&quot;1&quot;</tspan></text>
</g><path
                   id="path3071"
                   style="fill:none;stroke:#000000;stroke-width:1.95889997;stroke-linecap:butt;stroke-linejoin:miter;stroke-miterlimit:10;stroke-opacity:1;stroke-dasharray:none"
                   d="m 2235.32,182.828 c 0,-43.273 -35.08,-78.355 -78.35,-78.355 -43.27,0 -78.36,35.082 -78.36,78.355 0,43.274 35.09,78.356 78.36,78.356 43.27,0 78.35,-35.082 78.35,-78.356 z" /><path
                   id="path3073"
                   style="fill:none;stroke:#000000;stroke-width:1.95889997;stroke-linecap:butt;stroke-linejoin:miter;stroke-miterlimit:10;stroke-opacity:1;stroke-dasharray:none"
                   d="m 1882.72,182.828 c 0,-43.273 -35.08,-78.355 -78.35,-78.355 -43.28,0 -78.36,35.082 -78.36,78.355 0,43.274 35.08,78.356 78.36,78.356 43.27,0 78.35,-35.082 78.35,-78.356 z" /></g></g><g
               id="g3075"><g
                 clip-path="url(#clipPath3079)"
                 id="g3077"><g
                   clip-path="url(#clipPath3085)"
                   id="g3083"><path
                     id="path3089"
                     style="fill:none;stroke:#000000;stroke-width:1.95889997;stroke-linecap:butt;stroke-linejoin:miter;stroke-miterlimit:10;stroke-opacity:1;stroke-dasharray:none"
                     d="m 2215.73,241.598 0.53,0.261 1.56,0.524 2.36,1.043 3.65,1.828 4.97,2.09 6.26,2.613 7.06,3.133 8.09,3.394 8.62,3.395 8.88,3.398 8.62,3.395 8.62,3.394 8.1,2.614 7.83,2.609 7.32,2.09 6.79,1.566 6.26,1.047 6.01,0.524 6.01,0.257 6.01,-0.257 6.01,-0.524 6.26,-1.047 6.79,-1.566 7.32,-2.09 7.83,-2.609 8.1,-2.614 8.62,-3.394 8.62,-3.395 8.88,-3.398 8.62,-3.395 8.1,-3.394 7.05,-3.133 6.27,-2.613 4.96,-2.09 8.09,-3.656" /></g></g></g><g
               id="g3091"><g
                 clip-path="url(#clipPath3095)"
                 id="g3093"><path
                   id="path3099"
                   style="fill:none;stroke:#000000;stroke-width:1.95889997;stroke-linecap:butt;stroke-linejoin:miter;stroke-miterlimit:10;stroke-opacity:1;stroke-dasharray:none"
                   d="m 2425.47,261.707 25.33,-20.109 -31.86,5.746" /></g></g><g
               id="g3101"><g
                 clip-path="url(#clipPath3105)"
                 id="g3103"><g
                   clip-path="url(#clipPath3111)"
                   id="g3109"><path
                     id="path3115"
                     style="fill:none;stroke:#000000;stroke-width:1.95889997;stroke-linecap:butt;stroke-linejoin:miter;stroke-miterlimit:10;stroke-opacity:1;stroke-dasharray:none"
                     d="m 2098.2,241.598 -0.52,0.261 -1.57,0.524 -2.35,1.043 -3.65,1.828 -4.97,2.09 -6.26,2.613 -7.06,3.133 -8.09,3.394 -8.62,3.395 -8.88,3.398 -8.62,3.395 -8.62,3.394 -8.1,2.614 -7.84,2.609 -7.31,2.09 -6.79,1.566 -6.27,1.047 -6,0.524 -6.01,0.257 -6.01,-0.257 -6.01,-0.524 -6.27,-1.047 -6.79,-1.566 -7.31,-2.09 -7.83,-2.609 -8.1,-2.614 -8.62,-3.394 -8.62,-3.395 -8.88,-3.398 -8.62,-3.395 -8.1,-3.394 -7.05,-3.133 -6.27,-2.613 -4.96,-2.09 -8.1,-3.656" /></g></g></g><g
               id="g3117"><g
                 clip-path="url(#clipPath3121)"
                 id="g3119"><path
                   id="path3125"
                   style="fill:none;stroke:#000000;stroke-width:1.95889997;stroke-linecap:butt;stroke-linejoin:miter;stroke-miterlimit:10;stroke-opacity:1;stroke-dasharray:none"
                   d="m 1895,247.344 -31.87,-5.746 25.34,20.109" /></g></g><g
               id="g3127"><g
                 clip-path="url(#clipPath3131)"
                 id="g3129"><g
                   clip-path="url(#clipPath3137)"
                   id="g3135"><path
                     id="path3141"
                     style="fill:none;stroke:#000000;stroke-width:1.95889997;stroke-linecap:butt;stroke-linejoin:miter;stroke-miterlimit:10;stroke-opacity:1;stroke-dasharray:none"
                     d="m 1863.13,124.063 0.53,-0.262 1.56,-0.52 2.35,-1.047 3.66,-1.828 4.96,-2.09 6.27,-2.609 7.05,-3.137 8.1,-3.394 8.62,-3.395 8.88,-3.398 8.62,-3.3947 8.62,-3.3945 8.1,-2.6133 7.83,-2.6094 7.31,-2.0898 6.79,-1.5665 6.27,-1.0468 6.01,-0.5235 6.01,-0.2578 6.01,0.2578 6,0.5235 6.27,1.0468 6.79,1.5665 7.31,2.0898 7.84,2.6094 8.1,2.6133 8.62,3.3945 8.62,3.3947 8.88,3.398 8.62,3.395 8.09,3.394 7.06,3.137 6.26,2.609 4.97,2.09 8.09,3.657" /></g></g></g><g
               id="g3143"><g
                 clip-path="url(#clipPath3147)"
                 id="g3145"><path
                   id="path3151"
                   style="fill:none;stroke:#000000;stroke-width:1.95889997;stroke-linecap:butt;stroke-linejoin:miter;stroke-miterlimit:10;stroke-opacity:1;stroke-dasharray:none"
                   d="m 2066.34,118.316 31.86,5.747 -25.33,-20.11" /></g></g><g
               id="g3153"><g
                 clip-path="url(#clipPath3157)"
                 id="g3155"><g
                   clip-path="url(#clipPath3163)"
                   id="g3161"><path
                     id="path3167"
                     style="fill:none;stroke:#000000;stroke-width:1.95889997;stroke-linecap:butt;stroke-linejoin:miter;stroke-miterlimit:10;stroke-opacity:1;stroke-dasharray:none"
                     d="m 2450.8,124.063 -0.52,-0.262 -1.57,-0.52 -2.35,-1.047 -3.65,-1.828 -4.96,-2.09 -6.27,-2.609 -7.05,-3.137 -8.1,-3.394 -8.62,-3.395 -8.88,-3.398 -8.62,-3.3947 -8.62,-3.3945 -8.1,-2.6133 -7.83,-2.6094 -7.32,-2.0898 -6.79,-1.5665 -6.26,-1.0468 -6.01,-0.5235 -6.01,-0.2578 -6.01,0.2578 -6.01,0.5235 -6.26,1.0468 -6.79,1.5665 -7.32,2.0898 -7.83,2.6094 -8.1,2.6133 -8.62,3.3945 -8.62,3.3947 -8.88,3.398 -8.62,3.395 -8.09,3.394 -7.06,3.137 -6.26,2.609 -4.97,2.09 -8.1,3.657" /></g></g></g><g
               id="g3169"><g
                 clip-path="url(#clipPath3173)"
                 id="g3171"><path
                   id="path3177"
                   style="fill:none;stroke:#000000;stroke-width:1.95889997;stroke-linecap:butt;stroke-linejoin:miter;stroke-miterlimit:10;stroke-opacity:1;stroke-dasharray:none"
                   d="m 2241.07,103.953 -25.34,20.11 31.87,-5.747" /><g
                   transform="scale(4.35312,4.35312)"
                   id="g3179"><text
                     id="text3181"
                     transform="matrix(1,0,0,-1,403.107,32.9999)"><tspan
                       id="tspan3183"
                       sodipodi:role="line"
                       y="0"
                       x="0 6.3899999 16.398001 80.000099 86.390099 98.396103"
                       style="font-size:18px;font-variant:normal;font-weight:normal;writing-mode:lr-tb;fill:#000000;fill-opacity:1;fill-rule:nonzero;stroke:none;font-family:Helvetica;-inkscape-font-specification:Helvetica">&quot;0&quot;&quot;E&quot;</tspan></text>
</g><path
                   id="path3185"
                   style="fill:#000000;fill-opacity:1;fill-rule:evenodd;stroke:none"
                   d="m 609.434,790.086 c 0,-10.816 -8.77,-19.586 -19.586,-19.586 -10.817,0 -19.586,8.77 -19.586,19.586 0,10.816 8.769,19.586 19.586,19.586 10.816,0 19.586,-8.77 19.586,-19.586" /><path
                   id="path3187"
                   style="fill:none;stroke:#000000;stroke-width:1.95889997;stroke-linecap:butt;stroke-linejoin:miter;stroke-miterlimit:10;stroke-opacity:1;stroke-dasharray:none"
                   d="m 609.434,790.086 c 0,-10.816 -8.77,-19.586 -19.586,-19.586 -10.817,0 -19.586,8.77 -19.586,19.586 0,10.816 8.769,19.586 19.586,19.586 10.816,0 19.586,-8.77 19.586,-19.586 z" /><g
                   transform="scale(4.35312,4.35312)"
                   id="g3189"><text
                     id="text3191"
                     transform="matrix(1,0,0,-1,0.499822,174.3)"><tspan
                       id="tspan3193"
                       sodipodi:role="line"
                       y="0"
                       x="0 10.008 20.016001 30.024 34.02 40.014 46.007999 56.015999 60.012001"
                       style="font-size:18px;font-style:oblique;font-variant:normal;writing-mode:lr-tb;fill:#000000;fill-opacity:1;fill-rule:nonzero;stroke:none;font-family:Helvetica;-inkscape-font-specification:Helvetica-Oblique">dual-rail</tspan><tspan
                       id="tspan3195"
                       sodipodi:role="line"
                       y="20.700001"
                       x="0 5.994 16.002001 26.01 35.009998 45.018002 51.012001 56.015999 65.015999 75.024002 85.031998 95.040001 105.048 115.056"
                       style="font-size:18px;font-style:oblique;font-variant:normal;writing-mode:lr-tb;fill:#000000;fill-opacity:1;fill-rule:nonzero;stroke:none;font-family:Helvetica;-inkscape-font-specification:Helvetica-Oblique">(push) channel</tspan></text>
</g><g
                   transform="scale(4.35312,4.35312)"
                   id="g3197"><text
                     id="text3199"
                     transform="matrix(1,0,0,-1,527.678,176.82)"><tspan
                       id="tspan3201"
                       y="0"
                       x="0"
                       style="font-size:14.39999962px;font-variant:normal;font-weight:normal;writing-mode:lr-tb;fill:#000000;fill-opacity:1;fill-rule:nonzero;stroke:none;font-family:Helvetica;-inkscape-font-specification:Helvetica">0</tspan><tspan
                       id="tspan3203"
                       y="22.380699"
                       x="-0.120244"
                       style="font-size:14.39999962px;font-variant:normal;font-weight:normal;writing-mode:lr-tb;fill:#000000;fill-opacity:1;fill-rule:nonzero;stroke:none;font-family:Helvetica;-inkscape-font-specification:Helvetica">0</tspan><tspan
                       id="tspan3205"
                       y="40.380699"
                       x="-0.120244"
                       style="font-size:14.39999962px;font-variant:normal;font-weight:normal;writing-mode:lr-tb;fill:#000000;fill-opacity:1;fill-rule:nonzero;stroke:none;font-family:Helvetica;-inkscape-font-specification:Helvetica">1</tspan><tspan
                       id="tspan3207"
                       y="58.380699"
                       x="-0.120244"
                       style="font-size:14.39999962px;font-variant:normal;font-weight:normal;writing-mode:lr-tb;fill:#000000;fill-opacity:1;fill-rule:nonzero;stroke:none;font-family:Helvetica;-inkscape-font-specification:Helvetica">1</tspan><tspan
                       id="tspan3209"
                       sodipodi:role="line"
                       y="-22.4396"
                       x="-3.942934 4.0634661 8.0666656"
                       style="font-size:14.39999962px;font-variant:normal;font-weight:normal;writing-mode:lr-tb;fill:#000000;fill-opacity:1;fill-rule:nonzero;stroke:none;font-family:Helvetica;-inkscape-font-specification:Helvetica">d.t</tspan><tspan
                       id="tspan3211"
                       sodipodi:role="line"
                       y="-22.619068"
                       x="22.876966 30.883366 34.886566"
                       style="font-size:14.39999962px;font-variant:normal;font-weight:normal;writing-mode:lr-tb;fill:#000000;fill-opacity:1;fill-rule:nonzero;stroke:none;font-family:Helvetica;-inkscape-font-specification:Helvetica">d.f</tspan><tspan
                       id="tspan3213"
                       y="-0.119069"
                       x="26.880026"
                       style="font-size:14.39999962px;font-variant:normal;font-weight:normal;writing-mode:lr-tb;fill:#000000;fill-opacity:1;fill-rule:nonzero;stroke:none;font-family:Helvetica;-inkscape-font-specification:Helvetica">0</tspan><tspan
                       id="tspan3215"
                       y="22.380932"
                       x="26.880026"
                       style="font-size:14.39999962px;font-variant:normal;font-weight:normal;writing-mode:lr-tb;fill:#000000;fill-opacity:1;fill-rule:nonzero;stroke:none;font-family:Helvetica;-inkscape-font-specification:Helvetica">1</tspan><tspan
                       id="tspan3217"
                       y="40.380932"
                       x="26.880026"
                       style="font-size:14.39999962px;font-variant:normal;font-weight:normal;writing-mode:lr-tb;fill:#000000;fill-opacity:1;fill-rule:nonzero;stroke:none;font-family:Helvetica;-inkscape-font-specification:Helvetica">0</tspan><tspan
                       id="tspan3219"
                       y="58.380932"
                       x="26.880026"
                       style="font-size:14.39999962px;font-variant:normal;font-weight:normal;writing-mode:lr-tb;fill:#000000;fill-opacity:1;fill-rule:nonzero;stroke:none;font-family:Helvetica;-inkscape-font-specification:Helvetica">1</tspan></text>
</g><path
                   id="path3221"
                   style="fill:none;stroke:#000000;stroke-width:1.95889997;stroke-linecap:butt;stroke-linejoin:miter;stroke-miterlimit:10;stroke-opacity:1;stroke-dasharray:none"
                   d="m 1765.45,574.348 744.12,0.261" /><path
                   id="path3223"
                   style="fill:none;stroke:#000000;stroke-width:1.95889997;stroke-linecap:butt;stroke-linejoin:miter;stroke-miterlimit:10;stroke-opacity:1;stroke-dasharray:none"
                   d="m 1765.45,750.652 744.12,0.258" /><path
                   id="path3225"
                   style="fill:none;stroke:#000000;stroke-width:1.95889997;stroke-linecap:butt;stroke-linejoin:miter;stroke-miterlimit:10;stroke-opacity:1;stroke-dasharray:none"
                   d="m 1765.45,496.254 744.121,0 0,333.273 -744.121,0 0,-333.273 z" /><path
                   id="path3227"
                   style="fill:none;stroke:#000000;stroke-width:1.95889997;stroke-linecap:butt;stroke-linejoin:miter;stroke-miterlimit:10;stroke-opacity:1;stroke-dasharray:none"
                   d="m 2196.15,829.008 0,-333.016" /><path
                   id="path3229"
                   style="fill:none;stroke:#000000;stroke-width:1.95889997;stroke-linecap:butt;stroke-linejoin:miter;stroke-miterlimit:10;stroke-opacity:1;stroke-dasharray:none"
                   d="m 2196.15,848.855 313.422,0 0,78.3594 -313.422,0 0,-78.3594 z" /><path
                   id="path3231"
                   style="fill:none;stroke:#000000;stroke-width:1.95889997;stroke-linecap:butt;stroke-linejoin:miter;stroke-miterlimit:10;stroke-opacity:1;stroke-dasharray:none"
                   d="m 1765.19,848.336 430.961,0 0,78.8789 -430.961,0 0,-78.8789 z" /><g
                   transform="scale(4.35312,4.35312)"
                   id="g3233"><text
                     id="text3235"
                     transform="matrix(1,0,0,-1,414.56,154.439)"><tspan
                       id="tspan3237"
                       sodipodi:role="line"
                       y="0"
                       x="0 9.6048002 17.6112 20.808001 24.004801 32.0112 40.017601 45.129601 53.136002"
                       style="font-size:14.39999962px;font-variant:normal;font-weight:normal;writing-mode:lr-tb;fill:#000000;fill-opacity:1;fill-rule:nonzero;stroke:none;font-family:Helvetica;-inkscape-font-specification:Helvetica">Valid &quot;0&quot;</tspan><tspan
                       id="tspan3239"
                       sodipodi:role="line"
                       y="18"
                       x="0 9.6048002 17.6112 20.808001 24.004801 32.0112 40.017601 45.129601 53.136002"
                       style="font-size:14.39999962px;font-variant:normal;font-weight:normal;writing-mode:lr-tb;fill:#000000;fill-opacity:1;fill-rule:nonzero;stroke:none;font-family:Helvetica;-inkscape-font-specification:Helvetica">Valid &quot;1&quot;</tspan><tspan
                       id="tspan3241"
                       sodipodi:role="line"
                       y="36"
                       x="0 10.3968 18.4032 22.406401 26.409599 34.416 41.616001 49.622398"
                       style="font-size:14.39999962px;font-variant:normal;font-weight:normal;writing-mode:lr-tb;fill:#000000;fill-opacity:1;fill-rule:nonzero;stroke:none;font-family:Helvetica;-inkscape-font-specification:Helvetica">Not used</tspan><tspan
                       id="tspan3243"
                       sodipodi:role="line"
                       y="-22.3804"
                       x="0.119347 9.7241468 21.719347 29.725746 33.728947 40.928947 44.932148 49.727348 54.839348 64.444145 69.556145"
                       style="font-size:14.39999962px;font-variant:normal;font-weight:normal;writing-mode:lr-tb;fill:#000000;fill-opacity:1;fill-rule:nonzero;stroke:none;font-family:Helvetica;-inkscape-font-specification:Helvetica">Empty (&quot;E&quot;)</tspan></text>
</g><path
                   id="path3245"
                   style="fill:none;stroke:#000000;stroke-width:1.95889997;stroke-linecap:butt;stroke-linejoin:miter;stroke-miterlimit:10;stroke-opacity:1;stroke-dasharray:none"
                   d="M 903.793,828.746 864.617,750.391" /><g
                   transform="scale(4.35312,4.35312)"
                   id="g3247"><text
                     id="text3249"
                     transform="matrix(1,0,0,-1,203.12,163.38)"><tspan
                       id="tspan3251"
                       sodipodi:role="line"
                       y="0"
                       x="0 8.0064001"
                       style="font-size:14.39999962px;font-variant:normal;font-weight:normal;writing-mode:lr-tb;fill:#000000;fill-opacity:1;fill-rule:nonzero;stroke:none;font-family:Helvetica;-inkscape-font-specification:Helvetica">2n</tspan></text>
</g><path
                   id="path3253"
                   style="fill:none;stroke:#000000;stroke-width:3.91779995;stroke-linecap:butt;stroke-linejoin:miter;stroke-miterlimit:10;stroke-opacity:1;stroke-dasharray:none"
                   d="m 1295.57,926.691 -156.71,0 0,-430.961 156.71,0" /></g></g><g
               id="g3255"><g
                 clip-path="url(#clipPath3259)"
                 id="g3257"><g
                   clip-path="url(#clipPath3265)"
                   id="g3263"><path
                     id="path3269"
                     style="fill:none;stroke:#000000;stroke-width:1.95889997;stroke-linecap:butt;stroke-linejoin:miter;stroke-miterlimit:10;stroke-opacity:1;stroke-dasharray:none"
                     d="m 1138.86,574.348 -470.133,0" /></g></g></g><g
               id="g3271"><g
                 clip-path="url(#clipPath3275)"
                 id="g3273"><path
                   id="path3279"
                   style="fill:#000000;fill-opacity:1;fill-rule:evenodd;stroke:none"
                   d="m 700.066,566.516 -31.339,7.832 31.339,7.836 0,-15.668" /><path
                   id="path3281"
                   style="fill:none;stroke:#000000;stroke-width:1.95889997;stroke-linecap:butt;stroke-linejoin:miter;stroke-miterlimit:10;stroke-opacity:1;stroke-dasharray:none"
                   d="m 700.066,566.516 -31.339,7.832 31.339,7.836 0,-15.668 z" /><path
                   id="path3283"
                   style="fill:none;stroke:#000000;stroke-width:3.91779995;stroke-linecap:butt;stroke-linejoin:miter;stroke-miterlimit:10;stroke-opacity:1;stroke-dasharray:none"
                   d="m 511.754,926.691 156.711,0 0,-430.961 -156.711,0" /><path
                   id="path3285"
                   style="fill:none;stroke:#000000;stroke-width:1.95889997;stroke-linecap:butt;stroke-linejoin:miter;stroke-miterlimit:10;stroke-opacity:1;stroke-dasharray:none"
                   d="m 668.988,809.156 430.962,0 0,19.59 39.18,-39.18 -39.18,-39.175 0,19.589 -430.962,0" /><g
                   transform="scale(4.35312,4.35312)"
                   id="g3287"><text
                     id="text3289"
                     transform="matrix(1,0,0,-1,189.559,136.44)"><tspan
                       id="tspan3291"
                       sodipodi:role="line"
                       y="0"
                       x="0 10.8054 18.905399"
                       style="font-size:16.20000076px;font-variant:normal;font-weight:normal;writing-mode:lr-tb;fill:#000000;fill-opacity:1;fill-rule:nonzero;stroke:none;font-family:Helvetica;-inkscape-font-specification:Helvetica">Ack</tspan><tspan
                       id="tspan3293"
                       sodipodi:role="line"
                       y="-58.440498"
                       x="-18.4028 -6.7063999 2.3008001 6.8044 15.8116 20.315201 24.8188 36.515202 45.5224"
                       style="font-size:16.20000076px;font-variant:normal;font-weight:normal;writing-mode:lr-tb;fill:#000000;fill-opacity:1;fill-rule:nonzero;stroke:none;font-family:Helvetica;-inkscape-font-specification:Helvetica">Data, Req</tspan></text>
</g><path
                   id="path3295"
                   style="fill:none;stroke:#000000;stroke-width:1.95889997;stroke-linecap:butt;stroke-linejoin:miter;stroke-miterlimit:10;stroke-opacity:1;stroke-dasharray:none"
                   d="m 452.723,319.953 235.07,0 39.176,-117.535 215.48,0 39.18,117.535 235.071,0 39.18,-117.535 195.89,0" /><path
                   id="path3297"
                   style="fill:none;stroke:#000000;stroke-width:1.95889997;stroke-linecap:butt;stroke-linejoin:miter;stroke-miterlimit:10;stroke-opacity:1;stroke-dasharray:none"
                   d="m 452.723,202.418 235.07,0 39.176,117.535 215.48,0 39.18,-117.535 235.071,0 39.18,117.535 195.89,0" /></g></g><g
               id="g3299"><g
                 clip-path="url(#clipPath3303)"
                 id="g3301"><g
                   clip-path="url(#clipPath3309)"
                   id="g3307"><path
                     id="path3313"
                     style="fill:none;stroke:#000000;stroke-width:1.95889997;stroke-linecap:butt;stroke-linejoin:miter;stroke-miterlimit:10;stroke-opacity:1;stroke-dasharray:15.6712;stroke-dashoffset:0"
                     d="m 727.492,260.664 19.59,-19.59 0,-58.765 -0.523,-58.246 19.589,-39.1763 78.356,0" /></g></g></g><g
               id="g3315"><g
                 clip-path="url(#clipPath3319)"
                 id="g3317"><path
                   id="path3323"
                   style="fill:#000000;fill-opacity:1;fill-rule:evenodd;stroke:none"
                   d="m 813.16,92.7227 31.344,-7.836 -31.344,-7.8359 0,15.6719" /><path
                   id="path3325"
                   style="fill:none;stroke:#000000;stroke-width:1.95889997;stroke-linecap:butt;stroke-linejoin:miter;stroke-miterlimit:10;stroke-opacity:1;stroke-dasharray:none"
                   d="m 813.16,92.7227 31.344,-7.836 -31.344,-7.8359 0,15.6719 z" /></g></g><g
               id="g3327"><g
                 clip-path="url(#clipPath3331)"
                 id="g3329"><g
                   clip-path="url(#clipPath3337)"
                   id="g3335"><path
                     id="path3341"
                     style="fill:none;stroke:#000000;stroke-width:1.95889997;stroke-linecap:butt;stroke-linejoin:miter;stroke-miterlimit:10;stroke-opacity:1;stroke-dasharray:15.6712;stroke-dashoffset:0"
                     d="m 982.148,260.664 19.592,-19.59 0,-58.765 -0.53,-58.246 19.59,-39.1763 78.36,0" /></g></g></g><g
               id="g3343"><g
                 clip-path="url(#clipPath3347)"
                 id="g3345"><path
                   id="path3351"
                   style="fill:#000000;fill-opacity:1;fill-rule:evenodd;stroke:none"
                   d="m 1067.82,92.7227 31.34,-7.836 -31.34,-7.8359 0,15.6719" /><path
                   id="path3353"
                   style="fill:none;stroke:#000000;stroke-width:1.95889997;stroke-linecap:butt;stroke-linejoin:miter;stroke-miterlimit:10;stroke-opacity:1;stroke-dasharray:none"
                   d="m 1067.82,92.7227 31.34,-7.836 -31.34,-7.8359 0,15.6719 z" /><path
                   id="path3355"
                   style="fill:none;stroke:#000000;stroke-width:1.95889997;stroke-linecap:butt;stroke-linejoin:miter;stroke-miterlimit:10;stroke-opacity:1;stroke-dasharray:none"
                   d="m 453.246,123.539 117.535,0 -0.523,-117.01166 274.246,0 0.523,117.01166 254.653,0 -0.52,-117.01166 274.25,0 0.52,117.01166 78.36,0" /></g></g><g
               id="g3357"><g
                 clip-path="url(#clipPath3361)"
                 id="g3359"><g
                   clip-path="url(#clipPath3367)"
                   id="g3365"><path
                     id="path3371"
                     style="fill:none;stroke:#000000;stroke-width:1.95889997;stroke-linecap:butt;stroke-linejoin:miter;stroke-miterlimit:10;stroke-opacity:1;stroke-dasharray:15.6712;stroke-dashoffset:0"
                     d="m 844.504,84.8867 0.262,0 0.785,-0.5234 2.09,-0.5235 3.132,-0.7812 3.133,-0.7852 3.395,0 3.398,0.7852 3.395,1.8281 2.351,1.5664 2.348,1.8282 2.875,2.3515 2.871,2.3477 3.399,2.6133 3.394,2.875 3.656,2.8712 3.395,3.133 3.394,3.136 3.137,2.871 2.613,3.137 2.61,3.395 2.09,3.133 1.566,3.394 1.309,3.66 0.781,3.656 0.523,3.918 0,8.356 -0.261,4.441 -0.524,4.442 -0.519,4.437 -0.262,4.442 -0.524,4.441 -0.261,4.176 -0.262,4.441 0,16.715 -0.262,4.441 -0.258,4.442 -0.523,4.699 -0.262,4.703 -0.523,4.699 -0.524,4.442 -0.257,4.441 0,4.442 0.257,3.914 0.262,3.918 0.785,3.398 1.305,2.871 1.828,3.137 2.875,2.609 3.395,2.352 4.441,2.09 4.961,2.09 5.484,2.089 4.965,1.829 4.699,1.304 6.532,2.09" /></g></g></g><g
               id="g3373"><g
                 clip-path="url(#clipPath3377)"
                 id="g3375"><path
                   id="path3381"
                   style="fill:#000000;fill-opacity:1;fill-rule:evenodd;stroke:none"
                   d="m 910.848,258.574 32.125,2.09 -27.426,-16.976 -2.352,7.312 -2.347,7.574" /><path
                   id="path3383"
                   style="fill:none;stroke:#000000;stroke-width:1.95889997;stroke-linecap:butt;stroke-linejoin:miter;stroke-miterlimit:10;stroke-opacity:1;stroke-dasharray:none"
                   d="m 910.848,258.574 32.125,2.09 -27.426,-16.976 -2.352,7.312 -2.347,7.574 z" /></g></g><g
               id="g3385"><g
                 clip-path="url(#clipPath3389)"
                 id="g3387"><g
                   clip-path="url(#clipPath3395)"
                   id="g3393"><path
                     id="path3399"
                     style="fill:none;stroke:#000000;stroke-width:1.95889997;stroke-linecap:butt;stroke-linejoin:miter;stroke-miterlimit:10;stroke-opacity:1;stroke-dasharray:15.6712;stroke-dashoffset:0"
                     d="m 570.258,84.8867 0.785,0 1.828,-0.2617 3.133,-0.2617 3.918,-0.2617 4.703,-0.2618 4.961,-0.2617 9.141,0 3.918,0.2617 3.394,0.2618 3.399,0.7851 3.394,1.043 3.395,0.7851 3.394,1.3047 3.656,0.7852 3.661,1.043 3.914,1.3046 3.66,1.0469 3.656,1.5664 3.133,1.8282 2.875,2.3515 2.609,2.8707 1.828,3.657 1.047,3.398 0.781,3.656 0.524,4.18 0.262,4.699 0.261,4.961 -0.261,5.227 -0.262,5.484 -0.262,5.485 -0.262,5.746 -0.519,5.484 -0.262,5.484 -0.262,5.227 -0.261,4.961 0,23.246 -0.262,4.699 -0.262,4.442 -0.261,4.703 -0.52,4.437 -0.523,4.442 -0.262,4.441 -0.524,4.18 0,4.175 0.262,3.918 0.262,3.657 0.785,3.398 1.305,2.871 1.828,3.137 2.875,2.609 3.394,2.352 4.438,2.09 4.965,2.09 5.484,2.089 4.961,1.829 4.703,1.304 6.531,2.09" /></g></g></g><g
               id="g3401"><g
                 clip-path="url(#clipPath3405)"
                 id="g3403"><path
                   id="path3409"
                   style="fill:#000000;fill-opacity:1;fill-rule:evenodd;stroke:none"
                   d="m 656.188,258.574 32.128,2.09 -27.425,-16.976 -2.352,7.312 -2.351,7.574" /><path
                   id="path3411"
                   style="fill:none;stroke:#000000;stroke-width:1.95889997;stroke-linecap:butt;stroke-linejoin:miter;stroke-miterlimit:10;stroke-opacity:1;stroke-dasharray:none"
                   d="m 656.188,258.574 32.128,2.09 -27.425,-16.976 -2.352,7.312 -2.351,7.574 z" /><g
                   transform="scale(4.35312,4.35312)"
                   id="g3413"><text
                     id="text3415"
                     transform="matrix(1,0,0,-1,0.499822,195)"><tspan
                       id="tspan3417"
                       sodipodi:role="line"
                       y="0"
                       x="0 10.008 16.002001 26.01 36.018002 46.026001 55.026001"
                       style="font-size:18px;font-style:oblique;font-variant:normal;writing-mode:lr-tb;fill:#000000;fill-opacity:1;fill-rule:nonzero;stroke:none;font-family:Helvetica;-inkscape-font-specification:Helvetica-Oblique">4-phase</tspan></text>
<text
                     id="text3419"
                     transform="matrix(1,0,0,-1,0.680188,55.3196)"><tspan
                       id="tspan3421"
                       sodipodi:role="line"
                       y="0"
                       x="0 11.6964 20.7036 25.207199 34.214401 38.717999 44.128799 53.136002 57.639599 62.1432 66.646797 71.150398 80.1576 84.661201 89.164803"
                       style="font-size:16.20000076px;font-variant:normal;font-weight:normal;writing-mode:lr-tb;fill:#000000;fill-opacity:1;fill-rule:nonzero;stroke:none;font-family:Helvetica;-inkscape-font-specification:Helvetica">Data {d.t, d.f}</tspan></text>
<text
                     id="text3423"
                     transform="matrix(1,0,0,-1,106.217,55.3797)"><tspan
                       id="tspan3425"
                       sodipodi:role="line"
                       y="0"
                       x="0 9.6048002 21.6 29.6064 33.6096 67.398766 77.003571 85.009972 88.206764 91.403564 126 135.6048 147.60001 155.6064 159.6096 193.39877 203.00357 211.00996 214.20677 217.40356"
                       style="font-size:14.39999962px;font-variant:normal;font-weight:normal;writing-mode:lr-tb;fill:#000000;fill-opacity:1;fill-rule:nonzero;stroke:none;font-family:Helvetica;-inkscape-font-specification:Helvetica">EmptyValidEmptyValid</tspan></text>
<text
                     id="text3427"
                     transform="matrix(1,0,0,-1,45.4999,10.4998)"><tspan
                       id="tspan3429"
                       sodipodi:role="line"
                       y="0"
                       x="0 10.8054 18.905399"
                       style="font-size:16.20000076px;font-variant:normal;font-weight:normal;writing-mode:lr-tb;fill:#000000;fill-opacity:1;fill-rule:nonzero;stroke:none;font-family:Helvetica;-inkscape-font-specification:Helvetica">Ack</tspan></text>
</g></g></g></g></g></g></g></g></svg>