<?xml version="1.0" encoding="UTF-8" standalone="no"?>
<!-- Created with Inkscape (http://www.inkscape.org/) -->

<svg
   xmlns:dc="http://purl.org/dc/elements/1.1/"
   xmlns:cc="http://creativecommons.org/ns#"
   xmlns:rdf="http://www.w3.org/1999/02/22-rdf-syntax-ns#"
   xmlns:svg="http://www.w3.org/2000/svg"
   xmlns="http://www.w3.org/2000/svg"
   xmlns:sodipodi="http://sodipodi.sourceforge.net/DTD/sodipodi-0.dtd"
   xmlns:inkscape="http://www.inkscape.org/namespaces/inkscape"
   id="svg2970"
   version="1.1"
   inkscape:version="0.47pre4 r22446"
   width="743.75"
   height="1052.5"
   xml:space="preserve"
   sodipodi:docname="sparsø.pdf"><metadata
     id="metadata2976"><rdf:RDF><cc:Work
         rdf:about=""><dc:format>image/svg+xml</dc:format><dc:type
           rdf:resource="http://purl.org/dc/dcmitype/StillImage" /><dc:title></dc:title></cc:Work></rdf:RDF></metadata><defs
     id="defs2974"><inkscape:perspective
       sodipodi:type="inkscape:persp3d"
       inkscape:vp_x="0 : 0.5 : 1"
       inkscape:vp_y="0 : 1000 : 0"
       inkscape:vp_z="1 : 0.5 : 1"
       inkscape:persp3d-origin="0.5 : 0.33333333 : 1"
       id="perspective2978" /><clipPath
       clipPathUnits="userSpaceOnUse"
       id="clipPath2998"><path
         d="m 0,0 2384,0 0,3370 L 0,3370 0,0 z"
         id="path3000" /></clipPath><clipPath
       clipPathUnits="userSpaceOnUse"
       id="clipPath3008"><path
         d="m 0,0 0,9312 10378,0 L 10378,0 0,0 z"
         id="path3010" /></clipPath><clipPath
       clipPathUnits="userSpaceOnUse"
       id="clipPath3264"><path
         d="m 0,0 0,9312 10378,0 L 10378,0 0,0 z"
         id="path3266" /></clipPath><clipPath
       clipPathUnits="userSpaceOnUse"
       id="clipPath3270"><path
         d="m 0,0 0,9312 10378,0 L 10378,0 0,0 z m 995.559,1561.46 -31.344,7.84 31.344,7.83 -35.262,0 0,-15.67 35.262,0 z"
         id="path3272" /></clipPath><clipPath
       clipPathUnits="userSpaceOnUse"
       id="clipPath3280"><path
         d="m 0,0 0,9312 10378,0 L 10378,0 0,0 z"
         id="path3282" /></clipPath><clipPath
       clipPathUnits="userSpaceOnUse"
       id="clipPath3290"><path
         d="m 0,0 0,9312 10378,0 L 10378,0 0,0 z"
         id="path3292" /></clipPath><clipPath
       clipPathUnits="userSpaceOnUse"
       id="clipPath3296"><path
         d="m 0,0 0,9312 10378,0 L 10378,0 0,0 z m 1779.12,1561.46 -31.34,7.84 31.34,7.83 -35.26,0 0,-15.67 35.26,0 z"
         id="path3298" /></clipPath><clipPath
       clipPathUnits="userSpaceOnUse"
       id="clipPath3306"><path
         d="m 0,0 0,9312 10378,0 L 10378,0 0,0 z"
         id="path3308" /></clipPath><clipPath
       clipPathUnits="userSpaceOnUse"
       id="clipPath3316"><path
         d="m 0,0 0,9312 10378,0 L 10378,0 0,0 z"
         id="path3318" /></clipPath><clipPath
       clipPathUnits="userSpaceOnUse"
       id="clipPath3322"><path
         d="m 0,0 0,9312 10378,0 L 10378,0 0,0 z m 1187.53,1479.19 31.35,-7.84 -31.35,-7.83 35.26,0 0,15.67 -35.26,0 z"
         id="path3324" /></clipPath><clipPath
       clipPathUnits="userSpaceOnUse"
       id="clipPath3332"><path
         d="m 0,0 0,9312 10378,0 L 10378,0 0,0 z"
         id="path3334" /></clipPath><clipPath
       clipPathUnits="userSpaceOnUse"
       id="clipPath3342"><path
         d="m 0,0 0,9312 10378,0 L 10378,0 0,0 z"
         id="path3344" /></clipPath><clipPath
       clipPathUnits="userSpaceOnUse"
       id="clipPath3348"><path
         d="m 0,0 0,9312 10378,0 L 10378,0 0,0 z m 1520.54,1479.19 31.35,-7.84 -31.35,-7.83 35.26,0 0,15.67 -35.26,0 z"
         id="path3350" /></clipPath><clipPath
       clipPathUnits="userSpaceOnUse"
       id="clipPath3358"><path
         d="m 0,0 0,9312 10378,0 L 10378,0 0,0 z"
         id="path3360" /></clipPath><clipPath
       clipPathUnits="userSpaceOnUse"
       id="clipPath3368"><path
         d="m 0,0 0,9312 10378,0 L 10378,0 0,0 z"
         id="path3370" /></clipPath><clipPath
       clipPathUnits="userSpaceOnUse"
       id="clipPath3374"><path
         d="m 0,0 0,9312 10378,0 L 10378,0 0,0 z m 1971.09,1479.19 31.34,-7.84 -31.34,-7.83 35.26,0 0,15.67 -35.26,0 z"
         id="path3376" /></clipPath><clipPath
       clipPathUnits="userSpaceOnUse"
       id="clipPath3384"><path
         d="m 0,0 0,9312 10378,0 L 10378,0 0,0 z"
         id="path3386" /></clipPath><clipPath
       clipPathUnits="userSpaceOnUse"
       id="clipPath3394"><path
         d="m 0,0 0,9312 10378,0 L 10378,0 0,0 z"
         id="path3396" /></clipPath><clipPath
       clipPathUnits="userSpaceOnUse"
       id="clipPath3400"><path
         d="m 0,0 0,9312 10378,0 L 10378,0 0,0 z m 2304.11,1479.19 31.34,-7.84 -31.34,-7.83 35.26,0 0,15.67 -35.26,0 z"
         id="path3402" /></clipPath><clipPath
       clipPathUnits="userSpaceOnUse"
       id="clipPath3410"><path
         d="m 0,0 0,9312 10378,0 L 10378,0 0,0 z"
         id="path3412" /></clipPath><clipPath
       clipPathUnits="userSpaceOnUse"
       id="clipPath3420"><path
         d="m 0,0 0,9312 10378,0 L 10378,0 0,0 z"
         id="path3422" /></clipPath><clipPath
       clipPathUnits="userSpaceOnUse"
       id="clipPath3426"><path
         d="m 0,0 0,9312 10378,0 L 10378,0 0,0 z m 2695.89,1479.19 31.34,-7.84 -31.34,-7.83 35.25,0 0,15.67 -35.25,0 z"
         id="path3428" /></clipPath><clipPath
       clipPathUnits="userSpaceOnUse"
       id="clipPath3436"><path
         d="m 0,0 0,9312 10378,0 L 10378,0 0,0 z"
         id="path3438" /></clipPath><clipPath
       clipPathUnits="userSpaceOnUse"
       id="clipPath3446"><path
         d="m 0,0 0,9312 10378,0 L 10378,0 0,0 z"
         id="path3448" /></clipPath><clipPath
       clipPathUnits="userSpaceOnUse"
       id="clipPath3452"><path
         d="m 0,0 0,9312 10378,0 L 10378,0 0,0 z m 2562.68,1561.46 -31.34,7.84 31.34,7.83 -35.26,0 0,-15.67 35.26,0 z"
         id="path3454" /></clipPath><clipPath
       clipPathUnits="userSpaceOnUse"
       id="clipPath3462"><path
         d="m 0,0 0,9312 10378,0 L 10378,0 0,0 z"
         id="path3464" /></clipPath><clipPath
       clipPathUnits="userSpaceOnUse"
       id="clipPath3472"><path
         d="m 0,0 0,9312 10378,0 L 10378,0 0,0 z"
         id="path3474" /></clipPath><clipPath
       clipPathUnits="userSpaceOnUse"
       id="clipPath3478"><path
         d="m 0,0 0,9312 10378,0 L 10378,0 0,0 z m 525.422,1561.46 -31.344,7.84 31.344,7.83 -35.262,0 0,-15.67 35.262,0 z"
         id="path3480" /></clipPath><clipPath
       clipPathUnits="userSpaceOnUse"
       id="clipPath3488"><path
         d="m 0,0 0,9312 10378,0 L 10378,0 0,0 z"
         id="path3490" /></clipPath><clipPath
       clipPathUnits="userSpaceOnUse"
       id="clipPath3498"><path
         d="m 0,0 0,9312 10378,0 L 10378,0 0,0 z"
         id="path3500" /></clipPath><clipPath
       clipPathUnits="userSpaceOnUse"
       id="clipPath3504"><path
         d="m 0,0 0,9312 10378,0 L 10378,0 0,0 z m 736.984,1479.19 31.34,-7.84 -31.34,-7.83 35.258,0 0,15.67 -35.258,0 z"
         id="path3506" /></clipPath><clipPath
       clipPathUnits="userSpaceOnUse"
       id="clipPath3514"><path
         d="m 0,0 0,9312 10378,0 L 10378,0 0,0 z"
         id="path3516" /></clipPath><clipPath
       clipPathUnits="userSpaceOnUse"
       id="clipPath3524"><path
         d="m 0,0 0,9312 10378,0 L 10378,0 0,0 z"
         id="path3526" /></clipPath><clipPath
       clipPathUnits="userSpaceOnUse"
       id="clipPath3530"><path
         d="m 0,0 0,9312 10378,0 L 10378,0 0,0 z m 133.641,1561.46 -31.34,7.84 31.34,7.83 -35.2582,0 0,-15.67 35.2582,0 z"
         id="path3532" /></clipPath><clipPath
       clipPathUnits="userSpaceOnUse"
       id="clipPath3540"><path
         d="m 0,0 0,9312 10378,0 L 10378,0 0,0 z"
         id="path3542" /></clipPath><clipPath
       clipPathUnits="userSpaceOnUse"
       id="clipPath3550"><path
         d="m 0,0 0,9312 10378,0 L 10378,0 0,0 z"
         id="path3552" /></clipPath><clipPath
       clipPathUnits="userSpaceOnUse"
       id="clipPath3556"><path
         d="m 0,0 0,9312 10378,0 L 10378,0 0,0 z m 266.848,1479.19 31.343,-7.84 -31.343,-7.83 35.257,0 0,15.67 -35.257,0 z"
         id="path3558" /></clipPath><clipPath
       clipPathUnits="userSpaceOnUse"
       id="clipPath3566"><path
         d="m 0,0 0,9312 10378,0 L 10378,0 0,0 z"
         id="path3568" /></clipPath></defs><sodipodi:namedview
     pagecolor="#ffffff"
     bordercolor="#666666"
     borderopacity="1"
     objecttolerance="10"
     gridtolerance="10"
     guidetolerance="10"
     inkscape:pageopacity="0"
     inkscape:pageshadow="2"
     inkscape:window-width="1280"
     inkscape:window-height="950"
     id="namedview2972"
     showgrid="false"
     inkscape:zoom="0.89691211"
     inkscape:cx="353.47613"
     inkscape:cy="709.76937"
     inkscape:window-x="0"
     inkscape:window-y="25"
     inkscape:window-maximized="1"
     inkscape:current-layer="g2980" /><g
     id="g2980"
     inkscape:groupmode="layer"
     inkscape:label="sparsø"
     transform="matrix(1.25,0,0,-1.25,0,1052.5)"><path
       id="path3150"
       style="fill:none;stroke:#000000;stroke-width:0.37217626;stroke-linecap:butt;stroke-linejoin:miter;stroke-miterlimit:10;stroke-opacity:1;stroke-dasharray:none"
       d="m 151.10152,784.88763 c 0,-8.22164 -4.16558,-14.88695 -9.30393,-14.88695 -5.13835,0 -9.30393,6.66531 -9.30393,14.88695 0,8.22164 4.16558,14.88696 9.30393,14.88696 5.13835,0 9.30393,-6.66532 9.30393,-14.88696 z" /><path
       id="path3152"
       style="fill:none;stroke:#000000;stroke-width:0.37217626;stroke-linecap:butt;stroke-linejoin:miter;stroke-miterlimit:10;stroke-opacity:1;stroke-dasharray:none"
       d="m 225.53678,784.88763 c 0,-8.22164 -4.16559,-14.88695 -9.30394,-14.88695 -5.13834,0 -9.30393,6.66531 -9.30393,14.88695 0,8.22164 4.16559,14.88696 9.30393,14.88696 5.13835,0 9.30394,-6.66532 9.30394,-14.88696 z" /><path
       id="path3154"
       style="fill:#000000;fill-opacity:1;fill-rule:evenodd;stroke:none"
       d="m 72.945071,755.11375 5.58246,26.05231" /><path
       id="path3156"
       style="fill:none;stroke:#000000;stroke-width:0.18608813;stroke-linecap:butt;stroke-linejoin:miter;stroke-miterlimit:10;stroke-opacity:1;stroke-dasharray:none"
       d="m 72.945071,755.11375 5.58246,26.05231" /><path
       id="path3158"
       style="fill:#000000;fill-opacity:1;fill-rule:evenodd;stroke:none"
       d="m 67.362531,803.49654 0,-33.49586" /><path
       id="path3160"
       style="fill:none;stroke:#000000;stroke-width:0.37217626;stroke-linecap:butt;stroke-linejoin:miter;stroke-miterlimit:10;stroke-opacity:1;stroke-dasharray:none"
       d="m 67.362531,803.49654 0,-33.49586" /><path
       id="path3162"
       style="fill:#000000;fill-opacity:1;fill-rule:evenodd;stroke:none"
       d="m 52.475191,803.49654 0,-33.49586" /><path
       id="path3164"
       style="fill:none;stroke:#000000;stroke-width:0.37217626;stroke-linecap:butt;stroke-linejoin:miter;stroke-miterlimit:10;stroke-opacity:1;stroke-dasharray:none"
       d="m 52.475191,803.49654 0,-33.49586" /><path
       id="path3166"
       style="fill:#000000;fill-opacity:1;fill-rule:evenodd;stroke:none"
       d="m 97.136441,803.49654 0,-33.49586" /><path
       id="path3168"
       style="fill:none;stroke:#000000;stroke-width:0.37217626;stroke-linecap:butt;stroke-linejoin:miter;stroke-miterlimit:10;stroke-opacity:1;stroke-dasharray:none"
       d="m 97.136441,803.49654 0,-33.49586" /><path
       id="path3170"
       style="fill:#000000;fill-opacity:1;fill-rule:evenodd;stroke:none"
       d="m 112.02377,803.49654 0,-33.49586" /><path
       id="path3172"
       style="fill:none;stroke:#000000;stroke-width:0.37217626;stroke-linecap:butt;stroke-linejoin:miter;stroke-miterlimit:10;stroke-opacity:1;stroke-dasharray:none"
       d="m 112.02377,803.49654 0,-33.49586" /><path
       id="path3174"
       style="fill:#000000;fill-opacity:1;fill-rule:evenodd;stroke:none"
       d="m 171.57226,803.49654 0,-33.49586" /><path
       id="path3176"
       style="fill:none;stroke:#000000;stroke-width:0.37217626;stroke-linecap:butt;stroke-linejoin:miter;stroke-miterlimit:10;stroke-opacity:1;stroke-dasharray:none"
       d="m 171.57226,803.49654 0,-33.49586" /><path
       id="path3178"
       style="fill:none;stroke:#000000;stroke-width:0.37217626;stroke-linecap:butt;stroke-linejoin:miter;stroke-miterlimit:10;stroke-opacity:1;stroke-dasharray:none"
       d="m 32.005781,788.60959 11.165,0 0,3.72195 7.44381,-7.44353 -7.44381,-7.44381 0,3.72186 -11.165,0" /><path
       id="path3180"
       style="fill:none;stroke:#000000;stroke-width:0.37217626;stroke-linecap:butt;stroke-linejoin:miter;stroke-miterlimit:10;stroke-opacity:1;stroke-dasharray:none"
       d="m 69.223121,788.60959 18.60891,0 0,3.72195 7.44343,-7.44353 -7.44343,-7.44381 0,3.72186 -18.60891,0" /><path
       id="path3182"
       style="fill:none;stroke:#000000;stroke-width:0.37217626;stroke-linecap:butt;stroke-linejoin:miter;stroke-miterlimit:10;stroke-opacity:1;stroke-dasharray:none"
       d="m 113.88437,788.60959 11.16538,0 0,3.72195 7.44391,-7.44353 -7.44391,-7.44381 0,3.72186 -11.16538,0" /><path
       id="path3184"
       style="fill:none;stroke:#000000;stroke-width:0.37217626;stroke-linecap:butt;stroke-linejoin:miter;stroke-miterlimit:10;stroke-opacity:1;stroke-dasharray:none"
       d="m 151.10247,788.60959 11.16491,0 0,3.72195 7.4439,-7.44353 -7.4439,-7.44381 0,3.72186 -11.16491,0" /><path
       id="path3186"
       style="fill:none;stroke:#000000;stroke-width:0.37217626;stroke-linecap:butt;stroke-linejoin:miter;stroke-miterlimit:10;stroke-opacity:1;stroke-dasharray:none"
       d="m 188.3201,788.60959 11.16491,0 0,3.72195 7.4439,-7.44353 -7.4439,-7.44381 0,3.72186 -11.16491,0" /><path
       id="path3188"
       style="fill:none;stroke:#000000;stroke-width:0.37217626;stroke-linecap:butt;stroke-linejoin:miter;stroke-miterlimit:10;stroke-opacity:1;stroke-dasharray:none"
       d="m 225.53773,788.60959 11.1649,0 0,3.72195 7.44391,-7.44353 -7.44391,-7.44381 0,3.72186 -11.1649,0" /><path
       id="path3190"
       style="fill:none;stroke:#000000;stroke-width:0.37217626;stroke-linecap:butt;stroke-linejoin:miter;stroke-miterlimit:10;stroke-opacity:1;stroke-dasharray:none"
       d="m 262.75535,788.60959 11.16491,0 0,3.72195 7.44391,-7.44353 -7.44391,-7.44381 0,3.72186 -11.16491,0" /><path
       id="path3192"
       style="fill:none;stroke:#000000;stroke-width:0.37217626;stroke-linecap:butt;stroke-linejoin:miter;stroke-miterlimit:10;stroke-opacity:1;stroke-dasharray:none"
       d="m 50.614591,770.00068 18.60853,0 0,33.49586 -18.60853,0 0,-33.49586 z" /><path
       id="path3194"
       style="fill:none;stroke:#000000;stroke-width:0.37217626;stroke-linecap:butt;stroke-linejoin:miter;stroke-miterlimit:10;stroke-opacity:1;stroke-dasharray:none"
       d="m 95.275461,770.00068 18.608909,0 0,33.49586 -18.608909,0 0,-33.49586 z" /><path
       id="path3196"
       style="fill:none;stroke:#000000;stroke-width:0.37217626;stroke-linecap:butt;stroke-linejoin:miter;stroke-miterlimit:10;stroke-opacity:1;stroke-dasharray:none"
       d="m 244.14654,770.00068 18.60891,0 0,33.49586 -18.60891,0 0,-33.49586 z" /><path
       id="path3198"
       style="fill:none;stroke:#000000;stroke-width:0.37217626;stroke-linecap:butt;stroke-linejoin:miter;stroke-miterlimit:10;stroke-opacity:1;stroke-dasharray:none"
       d="m 169.71128,770.00068 18.60891,0 0,33.49586 -18.60891,0 0,-33.49586 z" /><path
       id="path3200"
       style="fill:#000000;fill-opacity:1;fill-rule:evenodd;stroke:none"
       d="m 186.45912,803.49654 0,-33.49586" /><path
       id="path3202"
       style="fill:none;stroke:#000000;stroke-width:0.37217626;stroke-linecap:butt;stroke-linejoin:miter;stroke-miterlimit:10;stroke-opacity:1;stroke-dasharray:none"
       d="m 186.45912,803.49654 0,-33.49586" /><path
       id="path3204"
       style="fill:#000000;fill-opacity:1;fill-rule:evenodd;stroke:none"
       d="m 260.89438,803.49654 0,-33.49586" /><path
       id="path3206"
       style="fill:none;stroke:#000000;stroke-width:0.37217626;stroke-linecap:butt;stroke-linejoin:miter;stroke-miterlimit:10;stroke-opacity:1;stroke-dasharray:none"
       d="m 260.89438,803.49654 0,-33.49586" /><path
       id="path3208"
       style="fill:#000000;fill-opacity:1;fill-rule:evenodd;stroke:none"
       d="m 246.00752,803.49654 0,-33.49586" /><path
       id="path3210"
       style="fill:none;stroke:#000000;stroke-width:0.37217626;stroke-linecap:butt;stroke-linejoin:miter;stroke-miterlimit:10;stroke-opacity:1;stroke-dasharray:none"
       d="m 246.00752,803.49654 0,-33.49586" /><text
       transform="scale(1,-1)"
       id="text3214"
       x="58.058125"
       y="-747.67029"
       style="font-size:4.96236038px"><tspan
         style="font-size:6.6991868px;font-variant:normal;font-weight:normal;writing-mode:lr-tb;fill:#000000;fill-opacity:1;fill-rule:nonzero;stroke:none;font-family:Helvetica;-inkscape-font-specification:Helvetica"
         x="58.058125 60.436337 65.273148 68.997894 72.722641 76.447395 80.172142 83.896889 85.384109 87.762321 89.624687 93.349442 95.580269 97.442642 99.820854 103.5456 105.03282 108.75757 112.10716"
         y="-747.67029"
         sodipodi:role="line"
         id="tspan3216">&quot;Channel&quot; or &quot;Link&quot;</tspan><tspan
         style="font-size:6.6991868px;font-variant:normal;font-weight:normal;writing-mode:lr-tb;fill:#000000;fill-opacity:1;fill-rule:nonzero;stroke:none;font-family:Helvetica;-inkscape-font-specification:Helvetica"
         x="100.29939 105.1362 174.73492 179.57173 249.17052 254.00734 55.638145 60.47496 210.09079 214.9276 218.65234 135.65538 140.4922 144.21693"
         y="-783.0271"
         sodipodi:role="line"
         id="tspan3218">R2R3R4R1CL4CL3</tspan></text>
</g></svg>