<?xml version="1.0" encoding="UTF-8" standalone="no"?>
<!-- Created with Inkscape (http://www.inkscape.org/) -->

<svg
   xmlns:dc="http://purl.org/dc/elements/1.1/"
   xmlns:cc="http://creativecommons.org/ns#"
   xmlns:rdf="http://www.w3.org/1999/02/22-rdf-syntax-ns#"
   xmlns:svg="http://www.w3.org/2000/svg"
   xmlns="http://www.w3.org/2000/svg"
   xmlns:sodipodi="http://sodipodi.sourceforge.net/DTD/sodipodi-0.dtd"
   xmlns:inkscape="http://www.inkscape.org/namespaces/inkscape"
   id="svg2"
   version="1.1"
   inkscape:version="0.47pre4 r22446"
   width="743.75"
   height="1052.5"
   xml:space="preserve"
   sodipodi:docname="sparsø.pdf"><metadata
     id="metadata8"><rdf:RDF><cc:Work
         rdf:about=""><dc:format>image/svg+xml</dc:format><dc:type
           rdf:resource="http://purl.org/dc/dcmitype/StillImage" /><dc:title></dc:title></cc:Work></rdf:RDF></metadata><defs
     id="defs6"><inkscape:perspective
       sodipodi:type="inkscape:persp3d"
       inkscape:vp_x="0 : 0.5 : 1"
       inkscape:vp_y="0 : 1000 : 0"
       inkscape:vp_z="1 : 0.5 : 1"
       inkscape:persp3d-origin="0.5 : 0.33333333 : 1"
       id="perspective10" /><clipPath
       clipPathUnits="userSpaceOnUse"
       id="clipPath30"><path
         d="m 0,0 2384,0 0,3370 L 0,3370 0,0 z"
         id="path32" /></clipPath><clipPath
       clipPathUnits="userSpaceOnUse"
       id="clipPath40"><path
         d="m 0,0 0,9312 10378,0 L 10378,0 0,0 z"
         id="path42" /></clipPath><clipPath
       clipPathUnits="userSpaceOnUse"
       id="clipPath296"><path
         d="m 0,0 0,9312 10378,0 L 10378,0 0,0 z"
         id="path298" /></clipPath><clipPath
       clipPathUnits="userSpaceOnUse"
       id="clipPath302"><path
         d="m 0,0 0,9312 10378,0 L 10378,0 0,0 z m 995.559,1561.46 -31.344,7.84 31.344,7.83 -35.262,0 0,-15.67 35.262,0 z"
         id="path304" /></clipPath><clipPath
       clipPathUnits="userSpaceOnUse"
       id="clipPath312"><path
         d="m 0,0 0,9312 10378,0 L 10378,0 0,0 z"
         id="path314" /></clipPath><clipPath
       clipPathUnits="userSpaceOnUse"
       id="clipPath322"><path
         d="m 0,0 0,9312 10378,0 L 10378,0 0,0 z"
         id="path324" /></clipPath><clipPath
       clipPathUnits="userSpaceOnUse"
       id="clipPath328"><path
         d="m 0,0 0,9312 10378,0 L 10378,0 0,0 z m 1779.12,1561.46 -31.34,7.84 31.34,7.83 -35.26,0 0,-15.67 35.26,0 z"
         id="path330" /></clipPath><clipPath
       clipPathUnits="userSpaceOnUse"
       id="clipPath338"><path
         d="m 0,0 0,9312 10378,0 L 10378,0 0,0 z"
         id="path340" /></clipPath><clipPath
       clipPathUnits="userSpaceOnUse"
       id="clipPath348"><path
         d="m 0,0 0,9312 10378,0 L 10378,0 0,0 z"
         id="path350" /></clipPath><clipPath
       clipPathUnits="userSpaceOnUse"
       id="clipPath354"><path
         d="m 0,0 0,9312 10378,0 L 10378,0 0,0 z m 1187.53,1479.19 31.35,-7.84 -31.35,-7.83 35.26,0 0,15.67 -35.26,0 z"
         id="path356" /></clipPath><clipPath
       clipPathUnits="userSpaceOnUse"
       id="clipPath364"><path
         d="m 0,0 0,9312 10378,0 L 10378,0 0,0 z"
         id="path366" /></clipPath><clipPath
       clipPathUnits="userSpaceOnUse"
       id="clipPath374"><path
         d="m 0,0 0,9312 10378,0 L 10378,0 0,0 z"
         id="path376" /></clipPath><clipPath
       clipPathUnits="userSpaceOnUse"
       id="clipPath380"><path
         d="m 0,0 0,9312 10378,0 L 10378,0 0,0 z m 1520.54,1479.19 31.35,-7.84 -31.35,-7.83 35.26,0 0,15.67 -35.26,0 z"
         id="path382" /></clipPath><clipPath
       clipPathUnits="userSpaceOnUse"
       id="clipPath390"><path
         d="m 0,0 0,9312 10378,0 L 10378,0 0,0 z"
         id="path392" /></clipPath><clipPath
       clipPathUnits="userSpaceOnUse"
       id="clipPath400"><path
         d="m 0,0 0,9312 10378,0 L 10378,0 0,0 z"
         id="path402" /></clipPath><clipPath
       clipPathUnits="userSpaceOnUse"
       id="clipPath406"><path
         d="m 0,0 0,9312 10378,0 L 10378,0 0,0 z m 1971.09,1479.19 31.34,-7.84 -31.34,-7.83 35.26,0 0,15.67 -35.26,0 z"
         id="path408" /></clipPath><clipPath
       clipPathUnits="userSpaceOnUse"
       id="clipPath416"><path
         d="m 0,0 0,9312 10378,0 L 10378,0 0,0 z"
         id="path418" /></clipPath><clipPath
       clipPathUnits="userSpaceOnUse"
       id="clipPath426"><path
         d="m 0,0 0,9312 10378,0 L 10378,0 0,0 z"
         id="path428" /></clipPath><clipPath
       clipPathUnits="userSpaceOnUse"
       id="clipPath432"><path
         d="m 0,0 0,9312 10378,0 L 10378,0 0,0 z m 2304.11,1479.19 31.34,-7.84 -31.34,-7.83 35.26,0 0,15.67 -35.26,0 z"
         id="path434" /></clipPath><clipPath
       clipPathUnits="userSpaceOnUse"
       id="clipPath442"><path
         d="m 0,0 0,9312 10378,0 L 10378,0 0,0 z"
         id="path444" /></clipPath><clipPath
       clipPathUnits="userSpaceOnUse"
       id="clipPath452"><path
         d="m 0,0 0,9312 10378,0 L 10378,0 0,0 z"
         id="path454" /></clipPath><clipPath
       clipPathUnits="userSpaceOnUse"
       id="clipPath458"><path
         d="m 0,0 0,9312 10378,0 L 10378,0 0,0 z m 2695.89,1479.19 31.34,-7.84 -31.34,-7.83 35.25,0 0,15.67 -35.25,0 z"
         id="path460" /></clipPath><clipPath
       clipPathUnits="userSpaceOnUse"
       id="clipPath468"><path
         d="m 0,0 0,9312 10378,0 L 10378,0 0,0 z"
         id="path470" /></clipPath><clipPath
       clipPathUnits="userSpaceOnUse"
       id="clipPath478"><path
         d="m 0,0 0,9312 10378,0 L 10378,0 0,0 z"
         id="path480" /></clipPath><clipPath
       clipPathUnits="userSpaceOnUse"
       id="clipPath484"><path
         d="m 0,0 0,9312 10378,0 L 10378,0 0,0 z m 2562.68,1561.46 -31.34,7.84 31.34,7.83 -35.26,0 0,-15.67 35.26,0 z"
         id="path486" /></clipPath><clipPath
       clipPathUnits="userSpaceOnUse"
       id="clipPath494"><path
         d="m 0,0 0,9312 10378,0 L 10378,0 0,0 z"
         id="path496" /></clipPath><clipPath
       clipPathUnits="userSpaceOnUse"
       id="clipPath504"><path
         d="m 0,0 0,9312 10378,0 L 10378,0 0,0 z"
         id="path506" /></clipPath><clipPath
       clipPathUnits="userSpaceOnUse"
       id="clipPath510"><path
         d="m 0,0 0,9312 10378,0 L 10378,0 0,0 z m 525.422,1561.46 -31.344,7.84 31.344,7.83 -35.262,0 0,-15.67 35.262,0 z"
         id="path512" /></clipPath><clipPath
       clipPathUnits="userSpaceOnUse"
       id="clipPath520"><path
         d="m 0,0 0,9312 10378,0 L 10378,0 0,0 z"
         id="path522" /></clipPath><clipPath
       clipPathUnits="userSpaceOnUse"
       id="clipPath530"><path
         d="m 0,0 0,9312 10378,0 L 10378,0 0,0 z"
         id="path532" /></clipPath><clipPath
       clipPathUnits="userSpaceOnUse"
       id="clipPath536"><path
         d="m 0,0 0,9312 10378,0 L 10378,0 0,0 z m 736.984,1479.19 31.34,-7.84 -31.34,-7.83 35.258,0 0,15.67 -35.258,0 z"
         id="path538" /></clipPath><clipPath
       clipPathUnits="userSpaceOnUse"
       id="clipPath546"><path
         d="m 0,0 0,9312 10378,0 L 10378,0 0,0 z"
         id="path548" /></clipPath><clipPath
       clipPathUnits="userSpaceOnUse"
       id="clipPath556"><path
         d="m 0,0 0,9312 10378,0 L 10378,0 0,0 z"
         id="path558" /></clipPath><clipPath
       clipPathUnits="userSpaceOnUse"
       id="clipPath562"><path
         d="m 0,0 0,9312 10378,0 L 10378,0 0,0 z m 133.641,1561.46 -31.34,7.84 31.34,7.83 -35.2582,0 0,-15.67 35.2582,0 z"
         id="path564" /></clipPath><clipPath
       clipPathUnits="userSpaceOnUse"
       id="clipPath572"><path
         d="m 0,0 0,9312 10378,0 L 10378,0 0,0 z"
         id="path574" /></clipPath><clipPath
       clipPathUnits="userSpaceOnUse"
       id="clipPath582"><path
         d="m 0,0 0,9312 10378,0 L 10378,0 0,0 z"
         id="path584" /></clipPath><clipPath
       clipPathUnits="userSpaceOnUse"
       id="clipPath588"><path
         d="m 0,0 0,9312 10378,0 L 10378,0 0,0 z m 266.848,1479.19 31.343,-7.84 -31.343,-7.83 35.257,0 0,15.67 -35.257,0 z"
         id="path590" /></clipPath><clipPath
       clipPathUnits="userSpaceOnUse"
       id="clipPath598"><path
         d="m 0,0 0,9312 10378,0 L 10378,0 0,0 z"
         id="path600" /></clipPath></defs><sodipodi:namedview
     pagecolor="#ffffff"
     bordercolor="#666666"
     borderopacity="1"
     objecttolerance="10"
     gridtolerance="10"
     guidetolerance="10"
     inkscape:pageopacity="0"
     inkscape:pageshadow="2"
     inkscape:window-width="1400"
     inkscape:window-height="974"
     id="namedview4"
     showgrid="false"
     inkscape:zoom="0.89691211"
     inkscape:cx="608.36187"
     inkscape:cy="688.97208"
     inkscape:window-x="0"
     inkscape:window-y="25"
     inkscape:window-maximized="1"
     inkscape:current-layer="g12" /><g
     id="g12"
     inkscape:groupmode="layer"
     inkscape:label="sparsø"
     transform="matrix(1.25,0,0,-1.25,0,1052.5)"><path
       id="path260"
       style="fill:none;stroke:#000000;stroke-width:0.18608813;stroke-linecap:butt;stroke-linejoin:miter;stroke-miterlimit:10;stroke-opacity:1;stroke-dasharray:none"
       d="m 11.191253,708.62375 14.88696,0" /><path
       id="path262"
       style="fill:none;stroke:#000000;stroke-width:0.18608813;stroke-linecap:butt;stroke-linejoin:miter;stroke-miterlimit:10;stroke-opacity:1;stroke-dasharray:none"
       d="m 22.356253,712.3457 7.44381,-7.44391 -7.44381,-7.4439" /><path
       id="path264"
       style="fill:none;stroke:#000000;stroke-width:0.18608813;stroke-linecap:butt;stroke-linejoin:miter;stroke-miterlimit:10;stroke-opacity:1;stroke-dasharray:none"
       d="m 11.191253,701.17984 14.88696,0" /><path
       id="path266"
       style="fill:none;stroke:#000000;stroke-width:0.18608813;stroke-linecap:butt;stroke-linejoin:miter;stroke-miterlimit:10;stroke-opacity:1;stroke-dasharray:none"
       d="m 48.408593,708.62375 22.33077,0" /><path
       id="path268"
       style="fill:none;stroke:#000000;stroke-width:0.18608813;stroke-linecap:butt;stroke-linejoin:miter;stroke-miterlimit:10;stroke-opacity:1;stroke-dasharray:none"
       d="m 67.017503,712.3457 7.44343,-7.44391 -7.44343,-7.4439" /><path
       id="path270"
       style="fill:none;stroke:#000000;stroke-width:0.18608813;stroke-linecap:butt;stroke-linejoin:miter;stroke-miterlimit:10;stroke-opacity:1;stroke-dasharray:none"
       d="m 48.408593,701.17984 22.33077,0" /><path
       id="path272"
       style="fill:none;stroke:#000000;stroke-width:0.18608813;stroke-linecap:butt;stroke-linejoin:miter;stroke-miterlimit:10;stroke-opacity:1;stroke-dasharray:none"
       d="m 241.94082,708.62375 14.88686,0" /><path
       id="path274"
       style="fill:none;stroke:#000000;stroke-width:0.18608813;stroke-linecap:butt;stroke-linejoin:miter;stroke-miterlimit:10;stroke-opacity:1;stroke-dasharray:none"
       d="m 253.10573,712.3457 7.44391,-7.44391 -7.44391,-7.4439" /><path
       id="path276"
       style="fill:none;stroke:#000000;stroke-width:0.18608813;stroke-linecap:butt;stroke-linejoin:miter;stroke-miterlimit:10;stroke-opacity:1;stroke-dasharray:none"
       d="m 241.94082,701.17984 14.88686,0" /><path
       id="path278"
       style="fill:none;stroke:#000000;stroke-width:0.18608813;stroke-linecap:butt;stroke-linejoin:miter;stroke-miterlimit:10;stroke-opacity:1;stroke-dasharray:none"
       d="m 204.7232,708.62375 14.88686,0" /><path
       id="path280"
       style="fill:none;stroke:#000000;stroke-width:0.18608813;stroke-linecap:butt;stroke-linejoin:miter;stroke-miterlimit:10;stroke-opacity:1;stroke-dasharray:none"
       d="m 215.8881,712.3457 7.44391,-7.44391 -7.44391,-7.4439" /><path
       id="path282"
       style="fill:none;stroke:#000000;stroke-width:0.18608813;stroke-linecap:butt;stroke-linejoin:miter;stroke-miterlimit:10;stroke-opacity:1;stroke-dasharray:none"
       d="m 204.7232,701.17984 14.88686,0" /><path
       id="path284"
       style="fill:none;stroke:#000000;stroke-width:0.37217626;stroke-linecap:butt;stroke-linejoin:miter;stroke-miterlimit:10;stroke-opacity:1;stroke-dasharray:none"
       d="m 29.800063,734.67552 18.60853,0 0,16.74793 -18.60853,0 0,-16.74793 z" /><path
       id="path286"
       style="fill:none;stroke:#000000;stroke-width:0.37217626;stroke-linecap:butt;stroke-linejoin:miter;stroke-miterlimit:10;stroke-opacity:1;stroke-dasharray:none"
       d="m 74.460933,734.67552 18.60891,0 0,16.74793 -18.60891,0 0,-16.74793 z" /><path
       id="path288"
       style="fill:none;stroke:#000000;stroke-width:0.37217626;stroke-linecap:butt;stroke-linejoin:miter;stroke-miterlimit:10;stroke-opacity:1;stroke-dasharray:none"
       d="m 148.89675,734.67552 18.60891,0 0,16.74793 -18.60891,0 0,-16.74793 z" /><path
       id="path290"
       style="fill:none;stroke:#000000;stroke-width:0.37217626;stroke-linecap:butt;stroke-linejoin:miter;stroke-miterlimit:10;stroke-opacity:1;stroke-dasharray:none"
       d="m 223.33201,734.67552 18.60891,0 0,16.74793 -18.60891,0 0,-16.74793 z" /><g
       clip-path="url(#clipPath302)"
       id="g300"
       transform="matrix(0.09499624,0,0,0.09499624,1.4730431,598.62475)"><path
         id="path306"
         style="fill:none;stroke:#000000;stroke-width:1.95889997;stroke-linecap:butt;stroke-linejoin:miter;stroke-miterlimit:10;stroke-opacity:1;stroke-dasharray:none"
         d="m 1551.89,1569.3 -587.675,0" /></g><path
       id="path316"
       style="fill:none;stroke:#000000;stroke-width:0.18608813;stroke-linecap:butt;stroke-linejoin:miter;stroke-miterlimit:10;stroke-opacity:1;stroke-dasharray:none"
       d="m 96.047403,746.95758 -2.97756,0.74477 2.97756,0.74382" /><g
       clip-path="url(#clipPath328)"
       id="g326"
       transform="matrix(0.09499624,0,0,0.09499624,1.4730431,598.62475)"><path
         id="path332"
         style="fill:none;stroke:#000000;stroke-width:1.95889997;stroke-linecap:butt;stroke-linejoin:miter;stroke-miterlimit:10;stroke-opacity:1;stroke-dasharray:none"
         d="m 2335.45,1569.3 -587.67,0" /></g><path
       id="path342"
       style="fill:none;stroke:#000000;stroke-width:0.18608813;stroke-linecap:butt;stroke-linejoin:miter;stroke-miterlimit:10;stroke-opacity:1;stroke-dasharray:none"
       d="m 170.48275,746.95758 -2.97718,0.74477 2.97718,0.74382" /><g
       clip-path="url(#clipPath354)"
       id="g352"
       transform="matrix(0.09499624,0,0,0.09499624,1.4730431,598.62475)"><path
         id="path358"
         style="fill:none;stroke:#000000;stroke-width:1.95889997;stroke-linecap:butt;stroke-linejoin:miter;stroke-miterlimit:10;stroke-opacity:1;stroke-dasharray:none"
         d="m 964.215,1471.35 254.665,0" /></g><path
       id="path368"
       style="fill:none;stroke:#000000;stroke-width:0.18608813;stroke-linecap:butt;stroke-linejoin:miter;stroke-miterlimit:10;stroke-opacity:1;stroke-dasharray:none"
       d="m 114.28392,739.14224 2.97814,-0.74477 -2.97814,-0.74382" /><g
       clip-path="url(#clipPath380)"
       id="g378"
       transform="matrix(0.09499624,0,0,0.09499624,1.4730431,598.62475)"><path
         id="path384"
         style="fill:none;stroke:#000000;stroke-width:1.95889997;stroke-linecap:butt;stroke-linejoin:miter;stroke-miterlimit:10;stroke-opacity:1;stroke-dasharray:none"
         d="m 1297.23,1471.35 254.66,0" /></g><path
       id="path394"
       style="fill:none;stroke:#000000;stroke-width:0.18608813;stroke-linecap:butt;stroke-linejoin:miter;stroke-miterlimit:10;stroke-opacity:1;stroke-dasharray:none"
       d="m 145.91862,739.14224 2.97813,-0.74477 -2.97813,-0.74382" /><g
       clip-path="url(#clipPath406)"
       id="g404"
       transform="matrix(0.09499624,0,0,0.09499624,1.4730431,598.62475)"><path
         id="path410"
         style="fill:none;stroke:#000000;stroke-width:1.95889997;stroke-linecap:butt;stroke-linejoin:miter;stroke-miterlimit:10;stroke-opacity:1;stroke-dasharray:none"
         d="m 1747.78,1471.35 254.65,0" /></g><path
       id="path420"
       style="fill:none;stroke:#000000;stroke-width:0.18608813;stroke-linecap:butt;stroke-linejoin:miter;stroke-miterlimit:10;stroke-opacity:1;stroke-dasharray:none"
       d="m 188.71918,739.14224 2.97718,-0.74477 -2.97718,-0.74382" /><g
       clip-path="url(#clipPath432)"
       id="g430"
       transform="matrix(0.09499624,0,0,0.09499624,1.4730431,598.62475)"><path
         id="path436"
         style="fill:none;stroke:#000000;stroke-width:1.95889997;stroke-linecap:butt;stroke-linejoin:miter;stroke-miterlimit:10;stroke-opacity:1;stroke-dasharray:none"
         d="m 2080.79,1471.35 254.66,0" /></g><path
       id="path446"
       style="fill:none;stroke:#000000;stroke-width:0.18608813;stroke-linecap:butt;stroke-linejoin:miter;stroke-miterlimit:10;stroke-opacity:1;stroke-dasharray:none"
       d="m 220.35483,739.14224 2.97718,-0.74477 -2.97718,-0.74382" /><g
       clip-path="url(#clipPath458)"
       id="g456"
       transform="matrix(0.09499624,0,0,0.09499624,1.4730431,598.62475)"><path
         id="path462"
         style="fill:none;stroke:#000000;stroke-width:1.95889997;stroke-linecap:butt;stroke-linejoin:miter;stroke-miterlimit:10;stroke-opacity:1;stroke-dasharray:none"
         d="m 2531.34,1471.35 195.89,0" /></g><path
       id="path472"
       style="fill:none;stroke:#000000;stroke-width:0.18608813;stroke-linecap:butt;stroke-linejoin:miter;stroke-miterlimit:10;stroke-opacity:1;stroke-dasharray:none"
       d="m 257.57245,739.14224 2.97719,-0.74477 -2.97719,-0.74382" /><g
       clip-path="url(#clipPath484)"
       id="g482"
       transform="matrix(0.09499624,0,0,0.09499624,1.4730431,598.62475)"><path
         id="path488"
         style="fill:none;stroke:#000000;stroke-width:1.95889997;stroke-linecap:butt;stroke-linejoin:miter;stroke-miterlimit:10;stroke-opacity:1;stroke-dasharray:none"
         d="m 2727.23,1569.3 -195.89,0" /></g><path
       id="path498"
       style="fill:none;stroke:#000000;stroke-width:0.18608813;stroke-linecap:butt;stroke-linejoin:miter;stroke-miterlimit:10;stroke-opacity:1;stroke-dasharray:none"
       d="m 244.918,746.95758 -2.97718,0.74477 2.97718,0.74382" /><g
       clip-path="url(#clipPath510)"
       id="g508"
       transform="matrix(0.09499624,0,0,0.09499624,1.4730431,598.62475)"><path
         id="path514"
         style="fill:none;stroke:#000000;stroke-width:1.95889997;stroke-linecap:butt;stroke-linejoin:miter;stroke-miterlimit:10;stroke-opacity:1;stroke-dasharray:none"
         d="m 768.324,1569.3 -274.246,0" /></g><path
       id="path524"
       style="fill:none;stroke:#000000;stroke-width:0.18608813;stroke-linecap:butt;stroke-linejoin:miter;stroke-miterlimit:10;stroke-opacity:1;stroke-dasharray:none"
       d="m 51.386153,746.95758 -2.97756,0.74477 2.97756,0.74382" /><g
       clip-path="url(#clipPath536)"
       id="g534"
       transform="matrix(0.09499624,0,0,0.09499624,1.4730431,598.62475)"><path
         id="path540"
         style="fill:none;stroke:#000000;stroke-width:1.95889997;stroke-linecap:butt;stroke-linejoin:miter;stroke-miterlimit:10;stroke-opacity:1;stroke-dasharray:none"
         d="m 494.078,1471.35 274.246,0" /></g><path
       id="path550"
       style="fill:none;stroke:#000000;stroke-width:0.18608813;stroke-linecap:butt;stroke-linejoin:miter;stroke-miterlimit:10;stroke-opacity:1;stroke-dasharray:none"
       d="m 71.483753,739.14224 2.97718,-0.74477 -2.97718,-0.74382" /><g
       clip-path="url(#clipPath562)"
       id="g560"
       transform="matrix(0.09499624,0,0,0.09499624,1.4730431,598.62475)"><path
         id="path566"
         style="fill:none;stroke:#000000;stroke-width:1.95889997;stroke-linecap:butt;stroke-linejoin:miter;stroke-miterlimit:10;stroke-opacity:1;stroke-dasharray:none"
         d="m 298.191,1569.3 -195.89,0" /></g><path
       id="path576"
       style="fill:none;stroke:#000000;stroke-width:0.18608813;stroke-linecap:butt;stroke-linejoin:miter;stroke-miterlimit:10;stroke-opacity:1;stroke-dasharray:none"
       d="m 14.168433,746.95758 -2.97718,0.74477 2.97718,0.74382" /><g
       clip-path="url(#clipPath588)"
       id="g586"
       transform="matrix(0.09499624,0,0,0.09499624,1.4730431,598.62475)"><path
         id="path592"
         style="fill:none;stroke:#000000;stroke-width:1.95889997;stroke-linecap:butt;stroke-linejoin:miter;stroke-miterlimit:10;stroke-opacity:1;stroke-dasharray:none"
         d="m 102.301,1471.35 195.89,0" /></g><path
       id="path602"
       style="fill:none;stroke:#000000;stroke-width:0.18608813;stroke-linecap:butt;stroke-linejoin:miter;stroke-miterlimit:10;stroke-opacity:1;stroke-dasharray:none"
       d="m 26.822603,739.14224 2.97746,-0.74477 -2.97746,-0.74382" /><g
       transform="matrix(0.41353003,0,0,0.41353003,1.4730431,598.62475)"
       id="g604"><text
         id="text606"
         transform="matrix(1,0,0,-1,126.999,365)"><tspan
           id="tspan608"
           sodipodi:role="line"
           y="0"
           x="0 10.8054 18.905399"
           style="font-size:16.20000076px;font-variant:normal;font-weight:normal;writing-mode:lr-tb;fill:#000000;fill-opacity:1;fill-rule:nonzero;stroke:none;font-family:Helvetica;-inkscape-font-specification:Helvetica">Ack</tspan></text>
</g><path
       id="path610"
       style="fill:none;stroke:#000000;stroke-width:0.37217626;stroke-linecap:butt;stroke-linejoin:miter;stroke-miterlimit:10;stroke-opacity:1;stroke-dasharray:none"
       d="m 130.28699,716.0667 c 0,-14.38813 -4.16558,-26.05262 -9.30393,-26.05262 -5.13835,0 -9.30393,11.66449 -9.30393,26.05262 0,14.38813 4.16558,26.05177 9.30393,26.05177 5.13835,0 9.30393,-11.66364 9.30393,-26.05177 z" /><path
       id="path612"
       style="fill:none;stroke:#000000;stroke-width:0.37217626;stroke-linecap:butt;stroke-linejoin:miter;stroke-miterlimit:10;stroke-opacity:1;stroke-dasharray:none"
       d="m 204.72225,716.0667 c 0,-14.38813 -4.16559,-26.05262 -9.30394,-26.05262 -5.13834,0 -9.30393,11.66449 -9.30393,26.05262 0,14.38813 4.16559,26.05177 9.30393,26.05177 5.13835,0 9.30394,-11.66364 9.30394,-26.05177 z" /><path
       id="path614"
       style="fill:none;stroke:#000000;stroke-width:0.37217626;stroke-linecap:butt;stroke-linejoin:miter;stroke-miterlimit:10;stroke-opacity:1;stroke-dasharray:none"
       d="m 81.904843,727.23256 1.86059,-5.58293 1.86088,5.58293" /><path
       id="path616"
       style="fill:none;stroke:#000000;stroke-width:0.37217626;stroke-linecap:butt;stroke-linejoin:miter;stroke-miterlimit:10;stroke-opacity:1;stroke-dasharray:none"
       d="m 156.33971,727.23256 1.86098,-5.58293 1.86097,5.58293" /><path
       id="path618"
       style="fill:none;stroke:#000000;stroke-width:0.37217626;stroke-linecap:butt;stroke-linejoin:miter;stroke-miterlimit:10;stroke-opacity:1;stroke-dasharray:none"
       d="m 230.77496,727.23256 1.86098,-5.58293 1.86098,5.58293" /><path
       id="path620"
       style="fill:none;stroke:#000000;stroke-width:0.37217626;stroke-linecap:butt;stroke-linejoin:miter;stroke-miterlimit:10;stroke-opacity:1;stroke-dasharray:none"
       d="m 37.243593,727.23256 1.8606,-5.58293 1.86097,5.58293" /><path
       id="path622"
       style="fill:none;stroke:#000000;stroke-width:0.37217626;stroke-linecap:butt;stroke-linejoin:miter;stroke-miterlimit:10;stroke-opacity:1;stroke-dasharray:none"
       d="m 29.800063,690.01446 18.60853,0 0,37.21772 -18.60853,0 0,-37.21772 z" /><path
       id="path624"
       style="fill:none;stroke:#000000;stroke-width:0.37217626;stroke-linecap:butt;stroke-linejoin:miter;stroke-miterlimit:10;stroke-opacity:1;stroke-dasharray:none"
       d="m 223.33201,690.01446 18.60891,0 0,37.21772 -18.60891,0 0,-37.21772 z" /><path
       id="path626"
       style="fill:none;stroke:#000000;stroke-width:0.18608813;stroke-linecap:butt;stroke-linejoin:miter;stroke-miterlimit:10;stroke-opacity:1;stroke-dasharray:none"
       d="m 167.50557,708.62375 14.88686,0" /><path
       id="path628"
       style="fill:none;stroke:#000000;stroke-width:0.18608813;stroke-linecap:butt;stroke-linejoin:miter;stroke-miterlimit:10;stroke-opacity:1;stroke-dasharray:none"
       d="m 178.67048,712.3457 7.4439,-7.44391 -7.4439,-7.4439" /><path
       id="path630"
       style="fill:none;stroke:#000000;stroke-width:0.37217626;stroke-linecap:butt;stroke-linejoin:miter;stroke-miterlimit:10;stroke-opacity:1;stroke-dasharray:none"
       d="m 74.460933,690.01446 18.60891,0 0,37.21772 -18.60891,0 0,-37.21772 z" /><path
       id="path632"
       style="fill:none;stroke:#000000;stroke-width:0.37217626;stroke-linecap:butt;stroke-linejoin:miter;stroke-miterlimit:10;stroke-opacity:1;stroke-dasharray:none"
       d="m 148.89675,690.01446 18.60891,0 0,37.21772 -18.60891,0 0,-37.21772 z" /><path
       id="path634"
       style="fill:none;stroke:#000000;stroke-width:0.18608813;stroke-linecap:butt;stroke-linejoin:miter;stroke-miterlimit:10;stroke-opacity:1;stroke-dasharray:none"
       d="m 93.069843,708.62375 14.887337,0" /><path
       id="path636"
       style="fill:none;stroke:#000000;stroke-width:0.18608813;stroke-linecap:butt;stroke-linejoin:miter;stroke-miterlimit:10;stroke-opacity:1;stroke-dasharray:none"
       d="m 104.23522,712.3457 7.44391,-7.44391 -7.44391,-7.4439" /><path
       id="path638"
       style="fill:none;stroke:#000000;stroke-width:0.18608813;stroke-linecap:butt;stroke-linejoin:miter;stroke-miterlimit:10;stroke-opacity:1;stroke-dasharray:none"
       d="m 130.28794,708.62375 14.88686,0" /><path
       id="path640"
       style="fill:none;stroke:#000000;stroke-width:0.18608813;stroke-linecap:butt;stroke-linejoin:miter;stroke-miterlimit:10;stroke-opacity:1;stroke-dasharray:none"
       d="m 141.45285,712.3457 7.4439,-7.44391 -7.4439,-7.4439" /><path
       id="path642"
       style="fill:none;stroke:#000000;stroke-width:0.18608813;stroke-linecap:butt;stroke-linejoin:miter;stroke-miterlimit:10;stroke-opacity:1;stroke-dasharray:none"
       d="m 39.104193,734.67552 0,-7.44296" /><path
       id="path644"
       style="fill:none;stroke:#000000;stroke-width:0.18608813;stroke-linecap:butt;stroke-linejoin:miter;stroke-miterlimit:10;stroke-opacity:1;stroke-dasharray:none"
       d="m 83.765433,734.67552 0,-7.44296" /><path
       id="path646"
       style="fill:none;stroke:#000000;stroke-width:0.18608813;stroke-linecap:butt;stroke-linejoin:miter;stroke-miterlimit:10;stroke-opacity:1;stroke-dasharray:none"
       d="m 158.20069,734.67552 0,-7.44296" /><path
       id="path648"
       style="fill:none;stroke:#000000;stroke-width:0.18608813;stroke-linecap:butt;stroke-linejoin:miter;stroke-miterlimit:10;stroke-opacity:1;stroke-dasharray:none"
       d="m 232.63594,734.67552 0,-7.44296" /><path
       id="path650"
       style="fill:none;stroke:#000000;stroke-width:0.18608813;stroke-linecap:butt;stroke-linejoin:miter;stroke-miterlimit:10;stroke-opacity:1;stroke-dasharray:none"
       d="m 93.069843,701.17984 14.887337,0" /><path
       id="path652"
       style="fill:none;stroke:#000000;stroke-width:0.18608813;stroke-linecap:butt;stroke-linejoin:miter;stroke-miterlimit:10;stroke-opacity:1;stroke-dasharray:none"
       d="m 130.28794,701.17984 14.88686,0" /><path
       id="path654"
       style="fill:none;stroke:#000000;stroke-width:0.18608813;stroke-linecap:butt;stroke-linejoin:miter;stroke-miterlimit:10;stroke-opacity:1;stroke-dasharray:none"
       d="m 167.50557,701.17984 14.88686,0" /><g
       transform="matrix(0.41353003,0,0,0.41353003,1.4730431,598.62475)"
       id="g656"><text
         id="text658"
         transform="matrix(1,0,0,-1,188.649,252.5)"><tspan
           id="tspan660"
           sodipodi:role="line"
           y="0"
           x="0 11.6964 180.00031 191.6967 360.00076 371.69717 -108 -96.303596 -69.754227 -58.057831 -49.050629 -44.547031"
           style="font-size:16.20000076px;font-variant:normal;font-weight:normal;writing-mode:lr-tb;fill:#000000;fill-opacity:1;fill-rule:nonzero;stroke:none;font-family:Helvetica;-inkscape-font-specification:Helvetica">R2R3R4R1Data</tspan><tspan
           id="tspan662"
           sodipodi:role="line"
           y="-9"
           x="85.497002 97.193398 106.2006 265.49731 277.1937 286.2009"
           style="font-size:16.20000076px;font-variant:normal;font-weight:normal;writing-mode:lr-tb;fill:#000000;fill-opacity:1;fill-rule:nonzero;stroke:none;font-family:Helvetica;-inkscape-font-specification:Helvetica">CL3CL4</tspan><tspan
           id="tspan664"
           sodipodi:role="line"
           y="-67.499802"
           x="-63.002998 -51.306599 -42.2994"
           style="font-size:16.20000076px;font-variant:normal;font-weight:normal;writing-mode:lr-tb;fill:#000000;fill-opacity:1;fill-rule:nonzero;stroke:none;font-family:Helvetica;-inkscape-font-specification:Helvetica">Req</tspan></text>
<text
         id="text666"
         transform="matrix(1,0,0,-1,73.9996,342.5)"><tspan
           id="tspan668"
           sodipodi:role="line"
           y="0"
           x="0 12.996 23.993999 108 120.996 131.994 288.00037 300.99637 311.99435 468.00073 480.99673 491.99472"
           style="font-size:18px;font-variant:normal;font-weight:normal;writing-mode:lr-tb;fill:#000000;fill-opacity:1;fill-rule:nonzero;stroke:none;font-family:Helvetica;-inkscape-font-specification:Helvetica">CTLCTLCTLCTL</tspan></text>
</g><path
       id="path670"
       style="fill:none;stroke:#000000;stroke-width:0.18608813;stroke-linecap:butt;stroke-linejoin:miter;stroke-miterlimit:10;stroke-opacity:1;stroke-dasharray:none"
       d="m 44.687023,831.44153 0,-52.10448 16.74793,0 -3.72195,-16.74784 14.88733,16.74784 104.209167,0 0,52.10448 -132.122477,0 z" /><path
       id="path672"
       style="fill:none;stroke:#000000;stroke-width:0.37217626;stroke-linecap:butt;stroke-linejoin:miter;stroke-miterlimit:10;stroke-opacity:1;stroke-dasharray:none"
       d="m 74.460933,814.6937 18.60891,0 0,7.4439 29.774197,0 0,-7.4439 37.21762,0 -7.44295,0" /><path
       id="path674"
       style="fill:none;stroke:#000000;stroke-width:0.37217626;stroke-linecap:butt;stroke-linejoin:miter;stroke-miterlimit:10;stroke-opacity:1;stroke-dasharray:none"
       d="m 93.069843,796.08488 -1.8606,-3.72195 1.8606,-3.72195 29.774197,0 1.86097,3.72195 -1.86097,3.72195 -29.774197,0 z" /><path
       id="path676"
       style="fill:none;stroke:#000000;stroke-width:0.37217626;stroke-linecap:butt;stroke-linejoin:miter;stroke-miterlimit:10;stroke-opacity:1;stroke-dasharray:none"
       d="m 124.70501,792.36293 35.35665,0" /><path
       id="path678"
       style="fill:none;stroke:#000000;stroke-width:0.37217626;stroke-linecap:butt;stroke-linejoin:miter;stroke-miterlimit:10;stroke-opacity:1;stroke-dasharray:none"
       d="m 74.460933,803.52879 33.496247,0 0,7.44296 29.77372,0 0,-7.44296 22.33076,0" /><path
       id="path680"
       style="fill:none;stroke:#000000;stroke-width:0.37217626;stroke-linecap:butt;stroke-linejoin:miter;stroke-miterlimit:10;stroke-opacity:1;stroke-dasharray:none"
       d="m 91.209243,792.36293 -16.74831,0" /><path
       id="path682"
       style="fill:none;stroke:#000000;stroke-width:0.18608813;stroke-linecap:butt;stroke-linejoin:miter;stroke-miterlimit:10;stroke-opacity:1;stroke-dasharray:1.48870508;stroke-dashoffset:0"
       d="m 93.069843,812.83272 0,-27.91274" /><path
       id="path684"
       style="fill:none;stroke:#000000;stroke-width:0.18608813;stroke-linecap:butt;stroke-linejoin:miter;stroke-miterlimit:10;stroke-opacity:1;stroke-dasharray:1.48870508;stroke-dashoffset:0"
       d="m 122.84404,812.83272 0,-27.91274" /><g
       transform="matrix(0.41353003,0,0,0.41353003,1.4730431,598.62475)"
       id="g686"><text
         id="text688"
         transform="matrix(1,0,0,-1,131.501,522.499)"><tspan
           id="tspan690"
           sodipodi:role="line"
           y="0"
           x="0 11.6964 20.7036"
           style="font-size:16.20000076px;font-variant:normal;font-weight:normal;writing-mode:lr-tb;fill:#000000;fill-opacity:1;fill-rule:nonzero;stroke:none;font-family:Helvetica;-inkscape-font-specification:Helvetica">Req</tspan><tspan
           id="tspan692"
           sodipodi:role="line"
           y="26.9993"
           x="0 10.8054 18.905399"
           style="font-size:16.20000076px;font-variant:normal;font-weight:normal;writing-mode:lr-tb;fill:#000000;fill-opacity:1;fill-rule:nonzero;stroke:none;font-family:Helvetica;-inkscape-font-specification:Helvetica">Ack</tspan><tspan
           id="tspan694"
           sodipodi:role="line"
           y="62.999901"
           x="0 11.6964 20.7036 25.207199"
           style="font-size:16.20000076px;font-variant:normal;font-weight:normal;writing-mode:lr-tb;fill:#000000;fill-opacity:1;fill-rule:nonzero;stroke:none;font-family:Helvetica;-inkscape-font-specification:Helvetica">Data</tspan></text>
</g></g></svg>