<?xml version="1.0" encoding="UTF-8" standalone="no"?>
<!-- Created with Inkscape (http://www.inkscape.org/) -->

<svg
   xmlns:dc="http://purl.org/dc/elements/1.1/"
   xmlns:cc="http://creativecommons.org/ns#"
   xmlns:rdf="http://www.w3.org/1999/02/22-rdf-syntax-ns#"
   xmlns:svg="http://www.w3.org/2000/svg"
   xmlns="http://www.w3.org/2000/svg"
   xmlns:sodipodi="http://sodipodi.sourceforge.net/DTD/sodipodi-0.dtd"
   xmlns:inkscape="http://www.inkscape.org/namespaces/inkscape"
   id="svg2837"
   version="1.1"
   inkscape:version="0.47pre4 r22446"
   width="602.37249"
   height="850.39"
   xml:space="preserve"
   sodipodi:docname="t000002d.pdf"><metadata
     id="metadata2843"><rdf:RDF><cc:Work
         rdf:about=""><dc:format>image/svg+xml</dc:format><dc:type
           rdf:resource="http://purl.org/dc/dcmitype/StillImage" /><dc:title></dc:title></cc:Work></rdf:RDF></metadata><defs
     id="defs2841"><inkscape:perspective
       sodipodi:type="inkscape:persp3d"
       inkscape:vp_x="0 : 0.5 : 1"
       inkscape:vp_y="0 : 1000 : 0"
       inkscape:vp_z="1 : 0.5 : 1"
       inkscape:persp3d-origin="0.5 : 0.33333333 : 1"
       id="perspective2845" /></defs><sodipodi:namedview
     pagecolor="#ffffff"
     bordercolor="#666666"
     borderopacity="1"
     objecttolerance="10"
     gridtolerance="10"
     guidetolerance="10"
     inkscape:pageopacity="0"
     inkscape:pageshadow="2"
     inkscape:window-width="1280"
     inkscape:window-height="950"
     id="namedview2839"
     showgrid="false"
     inkscape:zoom="1.1100789"
     inkscape:cx="335.25871"
     inkscape:cy="602.61429"
     inkscape:window-x="0"
     inkscape:window-y="25"
     inkscape:window-maximized="1"
     inkscape:current-layer="g2847" /><g
     id="g2847"
     inkscape:groupmode="layer"
     inkscape:label="t000002d"
     transform="matrix(1.25,0,0,-1.25,0,1052.5)"><path
       d="m 105.333,692.368 85.091,0 0,56.687 -85.091,0 0,-56.687"
       style="fill:#ffffff;fill-opacity:1;fill-rule:evenodd;stroke:#000000;stroke-opacity:1;stroke-width:0.25;stroke-linecap:butt;stroke-linejoin:round;stroke-miterlimit:10;stroke-dasharray:none"
       id="path2857" /><path
       d="m 105.333,621.509 85.091,0 0,56.627 -85.091,0 0,-56.627"
       style="fill:#ffffff;fill-opacity:1;fill-rule:evenodd;stroke:#000000;stroke-opacity:1;stroke-width:0.25;stroke-linecap:butt;stroke-linejoin:round;stroke-miterlimit:10;stroke-dasharray:none"
       id="path2859" /><path
       d="m 74.167,734.883 28.104,0"
       style="fill:none;stroke:#000000;stroke-opacity:1;stroke-width:0.25;stroke-linecap:round;stroke-linejoin:round;stroke-miterlimit:10;stroke-dasharray:none"
       id="path2861" /><path
       d="m 105.333,734.883 -4.083,-2.042 0.36,0.781 0.12,0.841 0,0.84 -0.12,0.841 -0.36,0.781 4.083,-2.042"
       style="fill:#000000;fill-opacity:1;fill-rule:evenodd;stroke:none"
       id="path2863" /><path
       d="m 190.424,720.711 28.284,0 0,-56.747 -25.221,0"
       style="fill:none;stroke:#000000;stroke-opacity:1;stroke-width:0.25;stroke-linecap:round;stroke-linejoin:round;stroke-miterlimit:10;stroke-dasharray:none"
       id="path2865" /><path
       d="m 190.424,663.964 4.083,-2.042 -0.3,0.781 -0.18,0.841 0,0.84 0.18,0.841 0.3,0.781 -4.083,-2.042"
       style="fill:#000000;fill-opacity:1;fill-rule:evenodd;stroke:none"
       id="path2867" /><path
       d="m 102.271,720.711 -25.281,0 0,-56.747 28.343,0"
       style="fill:none;stroke:#000000;stroke-opacity:1;stroke-width:0.25;stroke-linecap:round;stroke-linejoin:round;stroke-miterlimit:10;stroke-dasharray:none"
       id="path2869" /><path
       d="m 105.333,720.711 -4.083,2.042 0.36,-0.781 0.12,-0.84 0,-0.841 -0.12,-0.841 -0.36,-0.78 4.083,2.041"
       style="fill:#000000;fill-opacity:1;fill-rule:evenodd;stroke:none"
       id="path2871" /><path
       d="m 190.424,734.883 28.043,0"
       style="fill:none;stroke:#000000;stroke-opacity:1;stroke-width:0.25;stroke-linecap:round;stroke-linejoin:round;stroke-miterlimit:10;stroke-dasharray:none"
       id="path2873" /><path
       d="m 221.53,734.883 -4.083,-2.042 0.36,0.781 0.12,0.841 0,0.84 -0.12,0.841 -0.36,0.781 4.083,-2.042"
       style="fill:#000000;fill-opacity:1;fill-rule:evenodd;stroke:none"
       id="path2875" /><path
       d="m 74.167,635.68 28.104,0"
       style="fill:none;stroke:#000000;stroke-opacity:1;stroke-width:0.25;stroke-linecap:round;stroke-linejoin:round;stroke-miterlimit:10;stroke-dasharray:none"
       id="path2877" /><path
       d="m 105.333,635.68 -4.083,-2.041 0.36,0.78 0.12,0.841 0,0.841 -0.12,0.841 -0.36,0.78 4.083,-2.042"
       style="fill:#000000;fill-opacity:1;fill-rule:evenodd;stroke:none"
       id="path2879" /><path
       d="m 190.424,635.68 28.043,0"
       style="fill:none;stroke:#000000;stroke-opacity:1;stroke-width:0.25;stroke-linecap:round;stroke-linejoin:round;stroke-miterlimit:10;stroke-dasharray:none"
       id="path2881" /><path
       d="m 221.53,635.68 -4.083,-2.041 0.36,0.78 0.12,0.841 0,0.841 -0.12,0.841 -0.36,0.78 4.083,-2.042"
       style="fill:#000000;fill-opacity:1;fill-rule:evenodd;stroke:none"
       id="path2883" /><text
       transform="matrix(0.83694,0,0,-1,72.4858,738.9064)"
       id="text2885"><tspan
         style="fill:#000000;fill-opacity:1;fill-rule:nonzero;stroke:none;font-family:Times New Roman;font-variant:normal;font-weight:normal;font-size:10;writing-mode:lr;-inkscape-font-specification:Times-Roman"
         x="0 5.56"
         y="0"
         sodipodi:role="line"
         id="tspan2887">PI</tspan><tspan
         style="fill:#000000;fill-opacity:1;fill-rule:nonzero;stroke:none;font-family:Times New Roman;font-variant:normal;font-weight:normal;font-size:10;writing-mode:lr;-inkscape-font-specification:Times-Roman"
         x="169.329 174.889"
         y="-2.942"
         sodipodi:role="line"
         id="tspan2889">PO</tspan><tspan
         style="fill:#000000;fill-opacity:1;fill-rule:nonzero;stroke:none;font-family:Times New Roman;font-variant:normal;font-weight:normal;font-size:10;writing-mode:lr;-inkscape-font-specification:Times-Roman"
         x="162.154 168.264 175.484"
         y="113.435"
         sodipodi:role="line"
         id="tspan2891">TDO</tspan><tspan
         style="fill:#000000;fill-opacity:1;fill-rule:nonzero;stroke:none;font-family:Times New Roman;font-variant:normal;font-weight:normal;font-size:10;writing-mode:lr;-inkscape-font-specification:Times-Roman"
         x="0 6.11 13.33"
         y="113.315"
         sodipodi:role="line"
         id="tspan2893">TDI</tspan><tspan
         style="fill:#000000;fill-opacity:1;fill-rule:nonzero;stroke:none;font-family:Times New Roman;font-variant:normal;font-weight:normal;font-size:10;writing-mode:lr;-inkscape-font-specification:Times-Roman"
         x="57.184 59.964 111.786 118.456 121.236"
         y="138.776"
         sodipodi:role="line"
         id="tspan2895">teClk</tspan><tspan
         style="fill:#000000;fill-opacity:1;fill-rule:nonzero;stroke:none;font-family:Times New Roman;font-variant:normal;font-weight:normal;font-size:10;writing-mode:lr;-inkscape-font-specification:Times-Roman"
         x="54.529 61.199 66.199 73.979 78.979 81.759 86.759 91.199 93.979 96.759 101.759 106.759 111.199"
         y="15.193"
         sodipodi:role="line"
         id="tspan2897">Combinational</tspan><tspan
         style="fill:#000000;fill-opacity:1;fill-rule:nonzero;stroke:none;font-family:Times New Roman;font-variant:normal;font-weight:normal;font-size:10;writing-mode:lr;-inkscape-font-specification:Times-Roman"
         x="78.063 80.843 85.843 90.843 93.623"
         y="27.203"
         sodipodi:role="line"
         id="tspan2899">logic</tspan><tspan
         style="fill:#000000;fill-opacity:1;fill-rule:nonzero;stroke:none;font-family:Times New Roman;font-variant:normal;font-weight:normal;font-size:10;writing-mode:lr;-inkscape-font-specification:Times-Roman"
         x="67.803 74.473 78.913 83.913 86.693 90.583 93.363 97.803 101.133"
         y="94.159"
         sodipodi:role="line"
         id="tspan2901">Registers</tspan></text>
<path
       d="m 286.204,734.883 10.629,0 0,21.258 10.629,0 0,-21.258 10.628,0 0,21.258 10.629,0 0,-21.258 10.629,0 0,21.258 10.689,0 0,-21.258 10.629,0 0,21.258 10.629,0 0,-21.258 10.569,0 0,21.258 10.628,0 0,-21.258 10.629,0 0,21.258 10.689,0"
       style="fill:none;stroke:#000000;stroke-opacity:1;stroke-width:0.75;stroke-linecap:round;stroke-linejoin:round;stroke-miterlimit:10;stroke-dasharray:none"
       id="path2903" /><path
       d="m 317.97,764.608 0,-1.922 m 0,-1.201 0,-0.24 m 0,-1.201 0,-1.921 m 0,-1.201 0,-0.241 m 0,-1.201 0,-1.921 m 0,-1.201 0,-0.24 m 0,-1.201 0,-1.922 m 0,-1.201 0,-0.24 m 0,-1.201 0,-1.922 m 0,-1.201 0,-0.24 m 0,-1.201 0,-1.922 m 0,-1.201 0,-0.24 m 0,-1.141 0,-1.921 m 0,-1.202 0,-0.24 m 0,-1.201 0,-1.921 m 0,-1.201 0,-0.24 m 0,-1.202 0,-1.921 m 0,-1.201 0,-0.24 m 0,-1.201 0,-1.922 m 0,-1.201 0,-0.24 m 0,-1.201 0,-1.922 m 0,-1.201 0,-0.24 m 0,-1.201 0,-1.922 m 0,-1.2 0,-0.241 m 0,-1.201 0,-1.921 m 0,-1.201 0,-0.24 m 0,-1.201 0,-1.922 m 0,-1.201 0,-0.24 m 0,-1.201 0,-1.922 m 0,-1.201 0,-0.24 m 0,-1.201 0,-1.922 m 0,-1.201 0,-0.24 m 0,-1.201 0,-1.921 m 0,-1.201 0,-0.241 m 0,-1.201 0,-1.921 m 0,-1.201 0,-0.24 m 0,-1.201 0,-1.922 m 0,-1.201 0,-0.24 m 0,-1.201 0,-1.922 m 0,-1.201 0,-0.24 m 0,-1.201 0,-1.922 m 0,-1.201 0,-0.24 m 0,-1.201 0,-1.922 m 0,-1.201 0,-0.24 m 0,-1.201 0,-1.921 m 0,-1.201 0,-0.241 m 0,-1.201 0,-1.921 m 0,-1.201 0,-0.24 m 0,-1.201 0,-1.922 m 0,-1.201 0,-0.24 m 0,-1.201 0,-1.922 m 0,-1.141 0,-0.24 m 0,-1.201 0,-1.921 m 0,-1.201 0,-0.241 m 0,-1.201 0,-1.921 m 0,-1.201 0,-0.24 m 0,-1.201 0,-1.922 m 0,-1.201 0,-0.24 m 0,-1.201 0,-1.922 m 0,-1.201 0,-0.24 m 0,-1.201 0,-1.922 m 0,-1.201 0,-0.24 m 0,-1.201 0,-1.922 m 0,-1.2 0,-0.241"
       style="fill:none;stroke:#000000;stroke-opacity:1;stroke-width:0.25;stroke-linecap:round;stroke-linejoin:round;stroke-miterlimit:10;stroke-dasharray:none"
       id="path2905" /><path
       d="m 317.97,618.686 0,-1.921 m 0,-1.201 0,-0.241 m 0,-1.2 0,-1.922 m 0,-1.201 0,-0.24 m 0,-1.201 0,-1.922 m 0,-1.201 0,-0.24 m 0,-1.201 0,-1.922 m 0,-1.201 0,-0.24 m 0,-1.201 0,-1.921 m 0,-1.202 0,-0.24 m 0,-1.201 0,-1.921 m 0,-1.201 0,-0.241 m 0,-1.201 0,-1.921 m 0,-1.201 0,-0.24 m 0,-1.201 0,-0.721 m -21.317,178.589 0,-1.922 m 0,-1.201 0,-0.24 m 0,-1.201 0,-1.921 m 0,-1.201 0,-0.241 m 0,-1.201 0,-1.921 m 0,-1.201 0,-0.24 m 0,-1.201 0,-1.922 m 0,-1.201 0,-0.24 m 0,-1.201 0,-1.922 m 0,-1.201 0,-0.24 m 0,-1.201 0,-1.922 m 0,-1.201 0,-0.24 m 0,-1.141 0,-1.921 m 0,-1.202 0,-0.24 m 0,-1.201 0,-1.921 m 0,-1.201 0,-0.24 m 0,-1.202 0,-1.921 m 0,-1.201 0,-0.24 m 0,-1.201 0,-1.922 m 0,-1.201 0,-0.24 m 0,-1.201 0,-1.922 m 0,-1.201 0,-0.24 m 0,-1.201 0,-1.922 m 0,-1.2 0,-0.241 m 0,-1.201 0,-1.921 m 0,-1.201 0,-0.24 m 0,-1.201 0,-1.922 m 0,-1.201 0,-0.24 m 0,-1.201 0,-1.922 m 0,-1.201 0,-0.24 m 0,-1.201 0,-1.922 m 0,-1.201 0,-0.24 m 0,-1.201 0,-1.921 m 0,-1.201 0,-0.241 m 0,-1.201 0,-1.921 m 0,-1.201 0,-0.24 m 0,-1.201 0,-1.922 m 0,-1.201 0,-0.24 m 0,-1.201 0,-1.922 m 0,-1.201 0,-0.24 m 0,-1.201 0,-1.922 m 0,-1.201 0,-0.24 m 0,-1.201 0,-1.922 m 0,-1.201 0,-0.24 m 0,-1.201 0,-1.921 m 0,-1.201 0,-0.241 m 0,-1.201 0,-1.921 m 0,-1.201 0,-0.24 m 0,-1.201 0,-1.922"
       style="fill:none;stroke:#000000;stroke-opacity:1;stroke-width:0.25;stroke-linecap:round;stroke-linejoin:round;stroke-miterlimit:10;stroke-dasharray:none"
       id="path2907" /><path
       d="m 296.653,652.014 0,-0.24 m 0,-1.201 0,-1.922 m 0,-1.141 0,-0.24 m 0,-1.201 0,-1.921 m 0,-1.201 0,-0.241 m 0,-1.201 0,-1.921 m 0,-1.201 0,-0.24 m 0,-1.201 0,-1.922 m 0,-1.201 0,-0.24 m 0,-1.201 0,-1.922 m 0,-1.201 0,-0.24 m 0,-1.201 0,-1.922 m 0,-1.201 0,-0.24 m 0,-1.201 0,-1.922 m 0,-1.2 0,-0.241 m 0,-1.201 0,-1.921 m 0,-1.201 0,-0.241 m 0,-1.2 0,-1.922 m 0,-1.201 0,-0.24 m 0,-1.201 0,-1.922 m 0,-1.201 0,-0.24 m 0,-1.201 0,-1.922 m 0,-1.201 0,-0.24 m 0,-1.201 0,-1.921 m 0,-1.202 0,-0.24 m 0,-1.201 0,-1.921 m 0,-1.201 0,-0.241 m 0,-1.201 0,-1.921 m 0,-1.201 0,-0.24 m 0,-1.201 0,-0.721 m 42.575,178.589 0,-1.922 m 0,-1.201 0,-0.24 m 0,-1.201 0,-1.921 m 0,-1.201 0,-0.241 m 0,-1.201 0,-1.921 m 0,-1.201 0,-0.24 m 0,-1.201 0,-1.922 m 0,-1.201 0,-0.24 m 0,-1.201 0,-1.922 m 0,-1.201 0,-0.24 m 0,-1.201 0,-1.922 m 0,-1.201 0,-0.24 m 0,-1.141 0,-1.921 m 0,-1.202 0,-0.24 m 0,-1.201 0,-1.921 m 0,-1.201 0,-0.24 m 0,-1.202 0,-1.921 m 0,-1.201 0,-0.24 m 0,-1.201 0,-1.922 m 0,-1.201 0,-0.24 m 0,-1.201 0,-1.922 m 0,-1.201 0,-0.24 m 0,-1.201 0,-1.922 m 0,-1.2 0,-0.241 m 0,-1.201 0,-1.921 m 0,-1.201 0,-0.24 m 0,-1.201 0,-1.922 m 0,-1.201 0,-0.24 m 0,-1.201 0,-1.922 m 0,-1.201 0,-0.24 m 0,-1.201 0,-1.922 m 0,-1.201 0,-0.24 m 0,-1.201 0,-1.921 m 0,-1.201 0,-0.241"
       style="fill:none;stroke:#000000;stroke-opacity:1;stroke-width:0.25;stroke-linecap:round;stroke-linejoin:round;stroke-miterlimit:10;stroke-dasharray:none"
       id="path2909" /><path
       d="m 339.228,687.083 0,-1.921 m 0,-1.201 0,-0.24 m 0,-1.201 0,-1.922 m 0,-1.201 0,-0.24 m 0,-1.201 0,-1.922 m 0,-1.201 0,-0.24 m 0,-1.201 0,-1.922 m 0,-1.201 0,-0.24"
       style="fill:none;stroke:#000000;stroke-opacity:1;stroke-width:0.25;stroke-linecap:round;stroke-linejoin:round;stroke-miterlimit:10;stroke-dasharray:none"
       id="path2911" /><path
       d="m 339.228,668.828 0,-1.922 m 0,-1.201 0,-0.24 m 0,-1.201 0,-1.921 m 0,-1.201 0,-0.241 m 0,-1.201 0,-1.921 m 0,-1.201 0,-0.24 m 0,-1.201 0,-1.922 m 0,-1.201 0,-0.24 m 0,-1.201 0,-1.922 m 0,-1.141 0,-0.24 m 0,-1.201 0,-1.921 m 0,-1.201 0,-0.241 m 0,-1.201 0,-1.921 m 0,-1.201 0,-0.24 m 0,-1.201 0,-1.922 m 0,-1.201 0,-0.24 m 0,-1.201 0,-1.922 m 0,-1.201 0,-0.24 m 0,-1.201 0,-1.922 m 0,-1.201 0,-0.24 m 0,-1.201 0,-1.922 m 0,-1.2 0,-0.241 m 0,-1.201 0,-1.921 m 0,-1.201 0,-0.241 m 0,-1.2 0,-1.922 m 0,-1.201 0,-0.24 m 0,-1.201 0,-1.922 m 0,-1.201 0,-0.24 m 0,-1.201 0,-1.922 m 0,-1.201 0,-0.24 m 0,-1.201 0,-1.921 m 0,-1.202 0,-0.24 m 0,-1.201 0,-1.921 m 0,-1.201 0,-0.241 m 0,-1.201 0,-1.921 m 0,-1.201 0,-0.24 m 0,-1.201 0,-0.721 m 42.515,178.589 0,-1.922 m 0,-1.201 0,-0.24 m 0,-1.201 0,-1.921 m 0,-1.201 0,-0.241 m 0,-1.201 0,-1.921 m 0,-1.201 0,-0.24 m 0,-1.201 0,-1.922 m 0,-1.201 0,-0.24 m 0,-1.201 0,-1.922 m 0,-1.201 0,-0.24 m 0,-1.201 0,-1.922 m 0,-1.201 0,-0.24 m 0,-1.141 0,-1.921 m 0,-1.202 0,-0.24 m 0,-1.201 0,-1.921 m 0,-1.201 0,-0.24 m 0,-1.202 0,-1.921 m 0,-1.201 0,-0.24 m 0,-1.201 0,-1.922 m 0,-1.201 0,-0.24 m 0,-1.201 0,-1.922 m 0,-1.201 0,-0.24 m 0,-1.201 0,-1.922 m 0,-1.2 0,-0.241 m 0,-1.201 0,-1.921 m 0,-1.201 0,-0.24 m 0,-1.201 0,-1.922"
       style="fill:none;stroke:#000000;stroke-opacity:1;stroke-width:0.25;stroke-linecap:round;stroke-linejoin:round;stroke-miterlimit:10;stroke-dasharray:none"
       id="path2913" /><path
       d="m 381.743,702.216 0,-0.24 m 0,-1.201 0,-1.922 m 0,-1.201 0,-0.24 m 0,-1.201 0,-1.922 m 0,-1.201 0,-0.24 m 0,-1.201 0,-1.921 m 0,-1.201 0,-0.241 m 0,-1.201 0,-1.921 m 0,-1.201 0,-0.24 m 0,-1.201 0,-1.922 m 0,-1.201 0,-0.24 m 0,-1.201 0,-1.922 m 0,-1.201 0,-0.24 m 0,-1.201 0,-1.922 m 0,-1.201 0,-0.24 m 0,-1.201 0,-1.922 m 0,-1.201 0,-0.24 m 0,-1.201 0,-1.921 m 0,-1.201 0,-0.241 m 0,-1.201 0,-1.921 m 0,-1.201 0,-0.24 m 0,-1.201 0,-1.922 m 0,-1.201 0,-0.24 m 0,-1.201 0,-1.922 m 0,-1.141 0,-0.24 m 0,-1.201 0,-1.921 m 0,-1.201 0,-0.241 m 0,-1.201 0,-1.921 m 0,-1.201 0,-0.24 m 0,-1.201 0,-1.922 m 0,-1.201 0,-0.24 m 0,-1.201 0,-1.922 m 0,-1.201 0,-0.24 m 0,-1.201 0,-1.922 m 0,-1.201 0,-0.24 m 0,-1.201 0,-1.922 m 0,-1.2 0,-0.241 m 0,-1.201 0,-1.921 m 0,-1.201 0,-0.241 m 0,-1.2 0,-1.922 m 0,-1.201 0,-0.24 m 0,-1.201 0,-1.922 m 0,-1.201 0,-0.24 m 0,-1.201 0,-1.922 m 0,-1.201 0,-0.24 m 0,-1.201 0,-1.921 m 0,-1.202 0,-0.24 m 0,-1.201 0,-1.921 m 0,-1.201 0,-0.241 m 0,-1.201 0,-1.921 m 0,-1.201 0,-0.24 m 0,-1.201 0,-0.721 m -21.257,178.589 0,-1.922 m 0,-1.201 0,-0.24 m 0,-1.201 0,-1.921 m 0,-1.201 0,-0.241 m 0,-1.201 0,-1.921 m 0,-1.201 0,-0.24 m 0,-1.201 0,-1.922 m 0,-1.201 0,-0.24 m 0,-1.201 0,-1.922 m 0,-1.201 0,-0.24 m 0,-1.201 0,-1.922 m 0,-1.201 0,-0.24"
       style="fill:none;stroke:#000000;stroke-opacity:1;stroke-width:0.25;stroke-linecap:round;stroke-linejoin:round;stroke-miterlimit:10;stroke-dasharray:none"
       id="path2915" /><path
       d="m 360.486,737.285 0,-1.921 m 0,-1.202 0,-0.24 m 0,-1.201 0,-1.921 m 0,-1.201 0,-0.24 m 0,-1.202 0,-1.921 m 0,-1.201 0,-0.24 m 0,-1.201 0,-1.922 m 0,-1.201 0,-0.24 m 0,-1.201 0,-1.922 m 0,-1.201 0,-0.24 m 0,-1.201 0,-1.922 m 0,-1.2 0,-0.241 m 0,-1.201 0,-1.921 m 0,-1.201 0,-0.24 m 0,-1.201 0,-1.922 m 0,-1.201 0,-0.24 m 0,-1.201 0,-1.922 m 0,-1.201 0,-0.24 m 0,-1.201 0,-1.922 m 0,-1.201 0,-0.24 m 0,-1.201 0,-1.921 m 0,-1.201 0,-0.241 m 0,-1.201 0,-1.921 m 0,-1.201 0,-0.24 m 0,-1.201 0,-1.922 m 0,-1.201 0,-0.24 m 0,-1.201 0,-1.922 m 0,-1.201 0,-0.24 m 0,-1.201 0,-1.922 m 0,-1.201 0,-0.24 m 0,-1.201 0,-1.922 m 0,-1.201 0,-0.24 m 0,-1.201 0,-1.921 m 0,-1.201 0,-0.241 m 0,-1.201 0,-1.921 m 0,-1.201 0,-0.24 m 0,-1.201 0,-1.922 m 0,-1.201 0,-0.24 m 0,-1.201 0,-1.922 m 0,-1.141 0,-0.24 m 0,-1.201 0,-1.921 m 0,-1.201 0,-0.241 m 0,-1.201 0,-1.921 m 0,-1.201 0,-0.24 m 0,-1.201 0,-1.922 m 0,-1.201 0,-0.24 m 0,-1.201 0,-1.922 m 0,-1.201 0,-0.24 m 0,-1.201 0,-1.922 m 0,-1.201 0,-0.24 m 0,-1.201 0,-1.922 m 0,-1.2 0,-0.241 m 0,-1.201 0,-1.921 m 0,-1.201 0,-0.241 m 0,-1.2 0,-1.922 m 0,-1.201 0,-0.24 m 0,-1.201 0,-1.922 m 0,-1.201 0,-0.24 m 0,-1.201 0,-1.922 m 0,-1.201 0,-0.24 m 0,-1.201 0,-1.921 m 0,-1.202 0,-0.24 m 0,-1.201 0,-1.921 m 0,-1.201 0,-0.241"
       style="fill:none;stroke:#000000;stroke-opacity:1;stroke-width:0.25;stroke-linecap:round;stroke-linejoin:round;stroke-miterlimit:10;stroke-dasharray:none"
       id="path2917" /><path
       d="m 360.486,591.303 0,-1.921 m 0,-1.201 0,-0.24 m 0,-1.201 0,-0.721 m 42.515,178.589 0,-1.922 m 0,-1.201 0,-0.24 m 0,-1.201 0,-1.921 m 0,-1.201 0,-0.241 m 0,-1.201 0,-1.921"
       style="fill:none;stroke:#000000;stroke-opacity:1;stroke-width:0.25;stroke-linecap:round;stroke-linejoin:round;stroke-miterlimit:10;stroke-dasharray:none"
       id="path2919" /><path
       d="m 403.001,752.358 0,-0.24 m 0,-1.201 0,-1.922 m 0,-1.201 0,-0.24 m 0,-1.201 0,-1.922 m 0,-1.201 0,-0.24 m 0,-1.201 0,-1.922 m 0,-1.201 0,-0.24 m 0,-1.141 0,-1.921 m 0,-1.202 0,-0.24 m 0,-1.201 0,-1.921 m 0,-1.201 0,-0.24 m 0,-1.202 0,-1.921 m 0,-1.201 0,-0.24 m 0,-1.201 0,-1.922 m 0,-1.201 0,-0.24 m 0,-1.201 0,-1.922 m 0,-1.201 0,-0.24 m 0,-1.201 0,-1.922 m 0,-1.2 0,-0.241 m 0,-1.201 0,-1.921 m 0,-1.201 0,-0.24 m 0,-1.201 0,-1.922 m 0,-1.201 0,-0.24 m 0,-1.201 0,-1.922 m 0,-1.201 0,-0.24 m 0,-1.201 0,-1.922 m 0,-1.201 0,-0.24 m 0,-1.201 0,-1.921 m 0,-1.201 0,-0.241 m 0,-1.201 0,-1.921 m 0,-1.201 0,-0.24 m 0,-1.201 0,-1.922 m 0,-1.201 0,-0.24 m 0,-1.201 0,-1.922 m 0,-1.201 0,-0.24 m 0,-1.201 0,-1.922 m 0,-1.201 0,-0.24 m 0,-1.201 0,-1.922 m 0,-1.201 0,-0.24 m 0,-1.201 0,-1.921 m 0,-1.201 0,-0.241 m 0,-1.201 0,-1.921 m 0,-1.201 0,-0.24 m 0,-1.201 0,-1.922 m 0,-1.201 0,-0.24 m 0,-1.201 0,-1.922 m 0,-1.141 0,-0.24 m 0,-1.201 0,-1.921 m 0,-1.201 0,-0.241 m 0,-1.201 0,-1.921 m 0,-1.201 0,-0.24 m 0,-1.201 0,-1.922 m 0,-1.201 0,-0.24 m 0,-1.201 0,-1.922 m 0,-1.201 0,-0.24 m 0,-1.201 0,-1.922 m 0,-1.201 0,-0.24 m 0,-1.201 0,-1.922 m 0,-1.2 0,-0.241 m 0,-1.201 0,-1.921 m 0,-1.201 0,-0.241 m 0,-1.2 0,-1.922 m 0,-1.201 0,-0.24 m 0,-1.201 0,-1.922"
       style="fill:none;stroke:#000000;stroke-opacity:1;stroke-width:0.25;stroke-linecap:round;stroke-linejoin:round;stroke-miterlimit:10;stroke-dasharray:none"
       id="path2921" /><path
       d="m 403.001,606.436 0,-0.24 m 0,-1.201 0,-1.922 m 0,-1.201 0,-0.24 m 0,-1.201 0,-1.921 m 0,-1.202 0,-0.24 m 0,-1.201 0,-1.921 m 0,-1.201 0,-0.241 m 0,-1.201 0,-1.921 m 0,-1.201 0,-0.24 m 0,-1.201 0,-0.721"
       style="fill:none;stroke:#000000;stroke-opacity:1;stroke-width:0.25;stroke-linecap:round;stroke-linejoin:round;stroke-miterlimit:10;stroke-dasharray:none"
       id="path2923" /><path
       d="m 286.204,727.797 53.144,0 0,-21.257 21.318,0 0,21.257 53.144,0 m -74.582,-49.661 21.258,0 0,21.318 -21.258,0 0,-21.318 z m 0,-28.224 21.258,0 0,21.318 -21.258,0 0,-21.318 z"
       style="fill:none;stroke:#000000;stroke-opacity:1;stroke-width:0.75;stroke-linecap:round;stroke-linejoin:round;stroke-miterlimit:10;stroke-dasharray:none"
       id="path2925" /><text
       transform="matrix(0.83694,0,0,-1,261.0429,654.4761)"
       id="text2927"><tspan
         style="fill:#000000;fill-opacity:1;fill-rule:nonzero;stroke:none;font-family:Times New Roman;font-variant:normal;font-weight:normal;font-size:10;writing-mode:lr;-inkscape-font-specification:Times-Roman"
         x="0 5.56"
         y="0"
         sodipodi:role="line"
         id="tspan2929">PO</tspan><tspan
         style="fill:#000000;fill-opacity:1;fill-rule:nonzero;stroke:none;font-family:Times New Roman;font-variant:normal;font-weight:normal;font-size:10;writing-mode:lr;-inkscape-font-specification:Times-Roman"
         x="0 5.56"
         y="-28.704"
         sodipodi:role="line"
         id="tspan2931">PI</tspan><tspan
         style="fill:#000000;fill-opacity:1;fill-rule:nonzero;stroke:none;font-family:Times New Roman;font-variant:normal;font-weight:normal;font-size:10;writing-mode:lr;-inkscape-font-specification:Times-Roman"
         x="0 2.78"
         y="-57.348"
         sodipodi:role="line"
         id="tspan2933">te</tspan><tspan
         style="fill:#000000;fill-opacity:1;fill-rule:nonzero;stroke:none;font-family:Times New Roman;font-variant:normal;font-weight:normal;font-size:10;writing-mode:lr;-inkscape-font-specification:Times-Roman"
         x="0 6.67 9.45"
         y="-85.932"
         sodipodi:role="line"
         id="tspan2935">Clk</tspan><tspan
         style="fill:#000000;fill-opacity:1;fill-rule:nonzero;stroke:none;font-family:Times New Roman;font-variant:normal;font-weight:normal;font-size:10;writing-mode:lr;-inkscape-font-specification:Times-Roman"
         x="0 6.11 11.11"
         y="28.583"
         sodipodi:role="line"
         id="tspan2937">Tdi</tspan><tspan
         style="fill:#000000;fill-opacity:1;fill-rule:nonzero;stroke:none;font-family:Times New Roman;font-variant:normal;font-weight:normal;font-size:10;writing-mode:lr;-inkscape-font-specification:Times-Roman"
         x="0 6.11 11.11"
         y="57.227"
         sodipodi:role="line"
         id="tspan2939">Tdo</tspan></text>
<path
       d="m 317.97,621.629 21.258,0 0,21.258 -21.258,0 0,-21.258 z m -21.317,0 21.318,0 0,21.258 -21.318,0 0,-21.258 z m 85.09,-28.524 21.258,0 0,21.258 -21.258,0 0,-21.258 z m -21.257,0 21.258,0 0,21.258 -21.258,0 0,-21.258 z"
       style="fill:none;stroke:#000000;stroke-opacity:1;stroke-width:0.75;stroke-linecap:round;stroke-linejoin:round;stroke-miterlimit:10;stroke-dasharray:none"
       id="path2941" /><path
       d="m 133.677,600.191 0,18.195"
       style="fill:none;stroke:#000000;stroke-opacity:1;stroke-width:0.25;stroke-linecap:round;stroke-linejoin:round;stroke-miterlimit:10;stroke-dasharray:none"
       id="path2943" /><path
       d="m 133.677,621.509 2.042,-4.084 -0.781,0.301 -0.841,0.12 -0.841,0 -0.84,-0.12 -0.781,-0.301 2.042,4.084"
       style="fill:#000000;fill-opacity:1;fill-rule:evenodd;stroke:none"
       id="path2945" /><path
       d="m 162.02,600.191 0,18.195"
       style="fill:none;stroke:#000000;stroke-opacity:1;stroke-width:0.25;stroke-linecap:round;stroke-linejoin:round;stroke-miterlimit:10;stroke-dasharray:none"
       id="path2947" /><path
       d="m 162.02,621.509 2.042,-4.084 -0.781,0.301 -0.84,0.12 -0.841,0 -0.841,-0.12 -0.78,-0.301 2.041,4.084"
       style="fill:#000000;fill-opacity:1;fill-rule:evenodd;stroke:none"
       id="path2949" /><text
       transform="matrix(0.83694,0,0,-1,102.2706,536.3577)"
       id="text2951"><tspan
         style="fill:#000000;fill-opacity:1;fill-rule:nonzero;stroke:none;font-family:Times New Roman;font-variant:normal;font-weight:normal;font-size:10;writing-mode:lr;-inkscape-font-specification:Times-Roman"
         x="0 3.33 7.77 11.1 18.6 24.16 28.6 33.04 38.04 40.54 43.32 47.76 51.65 54.43 56.93 61.37 64.15 67.48 71.92 76.92 79.7"
         y="0"
         sodipodi:role="line"
         id="tspan2953">(a) Scan test circuit</tspan><tspan
         style="fill:#000000;fill-opacity:1;fill-rule:nonzero;stroke:none;font-family:Times New Roman;font-variant:normal;font-weight:normal;font-size:10;writing-mode:lr;-inkscape-font-specification:Times-Roman"
         x="240.362 243.142"
         y="-92.777"
         sodipodi:role="line"
         id="tspan2955">in</tspan><tspan
         style="fill:#000000;fill-opacity:1;fill-rule:nonzero;stroke:none;font-family:Times New Roman;font-variant:normal;font-weight:normal;font-size:10;writing-mode:lr;-inkscape-font-specification:Times-Roman"
         x="242.156 245.486 250.486 253.816 261.316 266.876 271.316 275.756 280.756 283.256 286.036 290.476 294.366 297.146 299.646 304.646 307.976 312.976 315.756 320.756 325.196 330.196"
         y="0.12"
         sodipodi:role="line"
         id="tspan2957">(b) Scan test protocol</tspan><tspan
         style="fill:#000000;fill-opacity:1;fill-rule:nonzero;stroke:none;font-family:Times New Roman;font-variant:normal;font-weight:normal;font-size:10;writing-mode:lr;-inkscape-font-specification:Times-Roman"
         x="265.762 268.542"
         y="-92.777"
         sodipodi:role="line"
         id="tspan2959">in</tspan><tspan
         style="fill:#000000;fill-opacity:1;fill-rule:nonzero;stroke:none;font-family:Times New Roman;font-variant:normal;font-weight:normal;font-size:10;writing-mode:lr;-inkscape-font-specification:Times-Roman"
         x="291.161 293.941"
         y="-149.464"
         sodipodi:role="line"
         id="tspan2961">in</tspan><tspan
         style="fill:#000000;fill-opacity:1;fill-rule:nonzero;stroke:none;font-family:Times New Roman;font-variant:normal;font-weight:normal;font-size:10;writing-mode:lr;-inkscape-font-specification:Times-Roman"
         x="288.148 293.148 298.148"
         y="-121.12"
         sodipodi:role="line"
         id="tspan2963">out</tspan><tspan
         style="fill:#000000;fill-opacity:1;fill-rule:nonzero;stroke:none;font-family:Times New Roman;font-variant:normal;font-weight:normal;font-size:10;writing-mode:lr;-inkscape-font-specification:Times-Roman"
         x="313.619 318.619 323.619 338.947 343.947 348.947"
         y="-64.433"
         sodipodi:role="line"
         id="tspan2965">outout</tspan><tspan
         style="fill:#000000;fill-opacity:1;fill-rule:nonzero;stroke:none;font-family:Times New Roman;font-variant:normal;font-weight:normal;font-size:10;writing-mode:lr;-inkscape-font-specification:Times-Roman"
         x="225.51 229.4 233.84 238.28 243.28 245.78 253.56 258.56 263.56 315.341 319.231 323.671 328.111 333.111 335.611 343.391 348.391 353.391"
         y="-177.807"
         sodipodi:role="line"
         id="tspan2967">scan modescan mode</tspan></text>
<text
       transform="matrix(0.8445,0,0,-1,293.59,570.2859)"
       id="text2969"><tspan
         style="fill:#000000;fill-opacity:1;fill-rule:nonzero;stroke:none;font-family:Times New Roman;font-variant:normal;font-weight:normal;font-size:9;writing-mode:lr;-inkscape-font-specification:Times-Roman"
         x="0 3.501 7.497 11.493 15.993 18.99 21.492"
         y="0"
         sodipodi:role="line"
         id="tspan2971">scan-in</tspan><tspan
         style="fill:#000000;fill-opacity:1;fill-rule:nonzero;stroke:none;font-family:Times New Roman;font-variant:normal;font-weight:normal;font-size:9;writing-mode:lr;-inkscape-font-specification:Times-Roman"
         x="3.2706 7.7706 12.2706 16.2666 19.7676"
         y="10.809"
         sodipodi:role="line"
         id="tspan2973">phase</tspan><tspan
         style="fill:#000000;fill-opacity:1;fill-rule:nonzero;stroke:none;font-family:Times New Roman;font-variant:normal;font-weight:normal;font-size:9;writing-mode:lr;-inkscape-font-specification:Times-Roman"
         x="44.37 48.366 52.866 56.862 59.364 63.864 67.86 70.362 72.864 77.364"
         y="0"
         sodipodi:role="line"
         id="tspan2975">evaluation</tspan><tspan
         style="fill:#000000;fill-opacity:1;fill-rule:nonzero;stroke:none;font-family:Times New Roman;font-variant:normal;font-weight:normal;font-size:9;writing-mode:lr;-inkscape-font-specification:Times-Roman"
         x="54.4671 58.9671 63.4671 67.4631 70.9641"
         y="10.809"
         sodipodi:role="line"
         id="tspan2977">phase</tspan><tspan
         style="fill:#000000;fill-opacity:1;fill-rule:nonzero;stroke:none;font-family:Times New Roman;font-variant:normal;font-weight:normal;font-size:9;writing-mode:lr;-inkscape-font-specification:Times-Roman"
         x="99.6912 103.1922 107.1882 111.1842 115.6842 118.6812 123.1812 127.6812"
         y="0"
         sodipodi:role="line"
         id="tspan2979">scan-out</tspan><tspan
         style="fill:#000000;fill-opacity:1;fill-rule:nonzero;stroke:none;font-family:Times New Roman;font-variant:normal;font-weight:normal;font-size:9;writing-mode:lr;-inkscape-font-specification:Times-Roman"
         x="105.6645 110.1645 114.6645 118.6605 122.1615"
         y="10.809"
         sodipodi:role="line"
         id="tspan2981">phase</tspan></text>
<text
       transform="matrix(0.83694,0,0,-1,321.213,767.3101)"
       id="text2983"><tspan
         style="fill:#000000;fill-opacity:1;fill-rule:nonzero;stroke:none;font-family:Times New Roman;font-variant:normal;font-weight:normal;font-size:10;writing-mode:lr;-inkscape-font-specification:Times-Roman"
         x="0 5 10 13.33 21.11 25.55 28.33 30.83 38.61 43.61 48.61"
         y="0"
         sodipodi:role="line"
         id="tspan2985">normal mode</tspan></text>
<path
       d="m 353.4,764.608 0,-38.252"
       style="fill:none;stroke:#000000;stroke-opacity:1;stroke-width:0.25;stroke-linecap:round;stroke-linejoin:round;stroke-miterlimit:10;stroke-dasharray:none"
       id="path2987" /><path
       d="m 355.442,726.836 -2.042,-6.125 -2.042,6.125 4.084,0"
       style="fill:#000000;fill-opacity:1;fill-rule:evenodd;stroke:none"
       id="path2989" /><path
       d="m 403.001,584.578 -0.12,-0.721 -0.24,-0.66 -0.481,-0.601 -0.6,-0.48 -0.661,-0.24 -0.72,-0.121 -4.264,0 -0.72,-0.12 -0.721,-0.24 -0.54,-0.48 -0.481,-0.601 -0.3,-0.66 -0.06,-0.721 -0.12,0.721 -0.3,0.66 -0.421,0.601 -0.6,0.48 -0.661,0.24 -0.78,0.12 -26.843,0 -0.78,0.121 -0.661,0.24 -0.601,0.48 -0.42,0.601 -0.3,0.66 -0.12,0.721 -0.06,-0.721 -0.3,-0.66 -0.421,-0.601 -0.6,-0.48 -0.721,-0.24 -0.721,-0.121 -4.804,0 -0.72,-0.12 -0.721,-0.24 -0.6,-0.48 -0.421,-0.601 -0.3,-0.66 -0.06,-0.721 -0.12,0.721 -0.3,0.66 -0.421,0.601 -0.6,0.48 -0.661,0.24 -0.78,0.12 -5.105,0 -0.72,0.121 -0.661,0.24 -0.6,0.48 -0.481,0.601 -0.24,0.66 -0.12,0.721 m -42.575,0 0.12,-0.721 0.3,-0.66 0.42,-0.601 0.601,-0.48 0.66,-0.24 0.781,-0.121 4.264,0 0.72,-0.12 0.661,-0.24 0.6,-0.48 0.421,-0.601 0.3,-0.66 0.12,-0.721 0.06,0.721 0.3,0.66 0.481,0.601 0.54,0.48 0.721,0.24 0.72,0.12 26.963,0 0.72,0.121 0.661,0.24 0.6,0.48 0.481,0.601 0.24,0.66 0.12,0.721"
       style="fill:none;stroke:#000000;stroke-opacity:1;stroke-width:0.25;stroke-linecap:round;stroke-linejoin:round;stroke-miterlimit:10;stroke-dasharray:none"
       id="path2991" /></g></svg>